<?xml version="1.0" encoding="utf-8"?>
<!-- Generator: Adobe Illustrator 28.0.0, SVG Export Plug-In . SVG Version: 6.00 Build 0)  -->
<svg version="1.1" id="Layer_1" xmlns="http://www.w3.org/2000/svg" xmlns:xlink="http://www.w3.org/1999/xlink" x="0px" y="0px"
	 viewBox="0 0 74 71" style="enable-background:new 0 0 74 71;" xml:space="preserve">
<style type="text/css">
	.st0{fill:#265593;}
	.st1{fill:#E1B124;stroke:#F1F1F2;stroke-width:1.1556;stroke-miterlimit:10;}
</style>
<path class="st0" d="M15.62,58.77c-1.35-0.33-2.75-1.07-4.19-2.21c-1.44-1.14-2.55-2.85-3.33-5.11c-0.58-2-0.87-4.29-0.87-6.89
	c0-0.49,0.04-1.68,0.12-3.56c0.08-1.89,0.35-4.37,0.82-7.46c0.58-4.7,1.5-8.91,2.78-12.62c1.28-3.71,3.41-6.9,6.41-9.59
	c1.78-1.64,3.68-2.62,5.73-2.93c0.69-0.13,1.38-0.2,2.06-0.2c1.64,0,3.34,0.36,5.09,1.07c2.8,1.35,5.16,3.65,7.11,6.89
	c1.94,3.24,3.48,6.75,4.63,10.53c1.14,3.78,1.91,7.15,2.31,10.1c0.31,1.95,0.47,4.04,0.47,6.26c0,0.71-0.03,2.01-0.1,3.89
	c-0.07,1.89-0.71,4.04-1.93,6.46c-1.22,2.42-3.28,3.97-6.19,4.66c-0.75,0.13-1.48,0.2-2.16,0.2c-1.2,0-2.29-0.21-3.26-0.63
	c-1.31-0.69-2.26-1.79-2.86-3.3c-0.49-1.2-0.73-2.42-0.73-3.66c0-0.31,0.01-0.62,0.03-0.93c0.15-1.04,0.41-2.21,0.77-3.5
	c0.09-0.38,0.19-0.77,0.3-1.16c-0.93-0.24-1.85-0.37-2.76-0.37c-1.38,0-2.73,0.28-4.06,0.83c0.2,0.91,0.42,1.8,0.67,2.66
	c0.6,1.89,0.91,3.66,0.93,5.33v0.07c0,1.62-0.77,3.08-2.3,4.39c-0.64,0.53-1.41,0.89-2.3,1.07c-0.27,0.07-0.57,0.1-0.9,0.1
	C17.22,59.17,16.47,59.04,15.62,58.77z M29.47,38.07c0-1.64-0.23-3.32-0.7-5.03c-0.47-1.71-1.28-3.02-2.43-3.93
	c-0.69-0.49-1.41-0.73-2.16-0.73c-0.07,0-0.32,0.01-0.77,0.02c-0.44,0.01-0.92,0.33-1.43,0.95c-0.44,0.6-0.71,1.42-0.8,2.46
	c-0.07,0.69-0.1,1.44-0.1,2.26c0,0.42,0.01,0.85,0.03,1.3v1.23c0,0.73,0.01,1.5,0.03,2.3c1.26-0.4,2.68-0.69,4.26-0.87
	c0.73-0.09,1.42-0.13,2.06-0.13C28.2,37.9,28.87,37.96,29.47,38.07z"/>
<path class="st0" d="M356.03-376.18l0.73-0.07c0.15-0.02,0.32-0.03,0.5-0.03c0.35,0,0.83,0.04,1.41,0.12
	c0.59,0.08,1.22,0.29,1.9,0.63c0.68,0.34,1.23,0.88,1.65,1.61c0.42,0.69,0.63,1.64,0.63,2.86v0.8c0,2.69,0.27,5.25,0.8,7.69
	c0.31,1.53,0.58,3.21,0.8,5.03c0.22,1.66,0.33,3.59,0.33,5.79v0.6c-0.07,3.04-0.81,5.26-2.23,6.66c-1.42,1.4-3.28,2.26-5.59,2.6
	c-1.42,0.2-2.93,0.3-4.53,0.3c-0.95,0-1.94-0.03-2.96-0.1c-1.91-0.2-3.15-1.31-3.73-3.33c-0.36-1.31-0.53-2.81-0.53-4.49
	c0-0.95,0.1-2.44,0.3-4.44c0.2-2.01,0.64-4.49,1.33-7.46c0.69-2.96,1.31-5.46,1.86-7.51c0.02-0.11,0.04-0.21,0.07-0.3
	c0.42-1.51,0.94-2.73,1.55-3.66c0.61-0.93,1.24-1.64,1.9-2.11c0.65-0.48,1.27-0.8,1.85-0.97c0.58-0.17,1.05-0.25,1.43-0.25
	L356.03-376.18z M357.26-394.19c0.18-0.02,0.37-0.03,0.57-0.03c0.67,0,1.47,0.14,2.41,0.43c0.94,0.29,1.87,0.93,2.8,1.91
	c0.92,0.99,1.6,2.42,2.05,4.31c0.11,0.51,0.17,1.02,0.17,1.53c0,1.33-0.44,2.69-1.31,4.08c-0.88,1.39-2.14,2.57-3.79,3.54
	c-1.65,0.98-3.27,1.5-4.84,1.56c-1.58,0-2.98-0.52-4.23-1.56c-1.24-1.04-2.11-2.41-2.6-4.09c-0.2-0.64-0.3-1.32-0.3-2.03
	c0-1.07,0.23-2.17,0.7-3.33c0.6-1.4,1.36-2.52,2.3-3.36c0.93-0.84,1.86-1.48,2.78-1.91c0.92-0.43,1.7-0.72,2.35-0.85L357.26-394.19z
	"/>
<path class="st0" d="M367.51-389.06l0.87-0.93c0.55-0.62,1.41-1.36,2.56-2.23c1.15-0.87,2.62-1.71,4.39-2.53
	c1.78-0.82,3.87-1.45,6.29-1.9c1.51-0.29,3.15-0.43,4.93-0.43c1.07,0,2.17,0.06,3.33,0.17c4.73,0.51,8.34,1.84,10.83,3.98
	c2.5,2.14,4.28,4.62,5.36,7.42c1.08,2.81,1.87,5.49,2.38,8.04c0.11,0.56,0.23,1.09,0.37,1.6c0.18,0.75,0.27,1.63,0.27,2.63
	c0,1.51-0.26,3.61-0.78,6.31c-0.52,2.7-1.56,5.89-3.13,9.59c-1.56,3.69-3.5,7-5.81,9.9c-2.31,2.91-4.9,4.87-7.79,5.89
	c-3.68,1.18-6.75,1.76-9.19,1.76c-1.35,0-2.52-0.19-3.49-0.57c-2.44-0.93-3.66-2.77-3.66-5.53c0-0.33,0.02-0.68,0.07-1.03
	c0.13-1.4,0.32-2.93,0.57-4.59c0.51-3.13,0.83-6.38,0.97-9.75c0.02-0.4,0.03-0.8,0.03-1.2c0-2.91-0.5-5.58-1.5-8.02l-0.8,0.07h-0.2
	c-0.53,0-1.19-0.07-1.96-0.2c-0.78-0.13-1.61-0.43-2.51-0.88c-0.9-0.45-1.72-1.15-2.46-2.1c-0.74-0.94-1.3-2.2-1.68-3.78
	c-0.33-1.55-0.5-2.96-0.5-4.23c0-0.33,0.03-0.94,0.1-1.83c0.07-0.89,0.27-1.81,0.62-2.76c0.34-0.95,0.69-1.68,1.05-2.16
	L367.51-389.06z M384.49-374.98l0.33,1.7c0.2,1.15,0.42,2.57,0.65,4.24c0.23,1.68,0.39,3.37,0.48,5.08c0.02,0.44,0.03,0.88,0.03,1.3
	c0,1.15-0.09,2.18-0.27,3.06l1.13-0.73c0.73-0.49,1.55-1.15,2.45-1.98c0.9-0.83,1.65-1.79,2.25-2.88c0.47-0.84,0.7-1.72,0.7-2.63
	c0-0.27-0.02-0.53-0.07-0.8c-0.49-2.37-1.45-4.07-2.9-5.09c-1.22-0.87-2.54-1.3-3.96-1.3C385.06-375.01,384.78-375,384.49-374.98z"
	/>
<path class="st0" d="M416.01-376.18l0.73-0.07c0.15-0.02,0.32-0.03,0.5-0.03c0.35,0,0.83,0.04,1.41,0.12
	c0.59,0.08,1.22,0.29,1.9,0.63c0.68,0.34,1.23,0.88,1.65,1.61c0.42,0.69,0.63,1.64,0.63,2.86v0.8c0,2.69,0.27,5.25,0.8,7.69
	c0.31,1.53,0.58,3.21,0.8,5.03c0.22,1.66,0.33,3.59,0.33,5.79v0.6c-0.07,3.04-0.81,5.26-2.23,6.66c-1.42,1.4-3.28,2.26-5.59,2.6
	c-1.42,0.2-2.93,0.3-4.53,0.3c-0.95,0-1.94-0.03-2.96-0.1c-1.91-0.2-3.15-1.31-3.73-3.33c-0.36-1.31-0.53-2.81-0.53-4.49
	c0-0.95,0.1-2.44,0.3-4.44c0.2-2.01,0.64-4.49,1.33-7.46c0.69-2.96,1.31-5.46,1.86-7.51c0.02-0.11,0.04-0.21,0.07-0.3
	c0.42-1.51,0.94-2.73,1.55-3.66c0.61-0.93,1.24-1.64,1.9-2.11c0.65-0.48,1.27-0.8,1.85-0.97c0.58-0.17,1.05-0.25,1.43-0.25
	L416.01-376.18z M417.24-394.19c0.18-0.02,0.37-0.03,0.57-0.03c0.67,0,1.47,0.14,2.41,0.43c0.94,0.29,1.87,0.93,2.8,1.91
	c0.92,0.99,1.6,2.42,2.05,4.31c0.11,0.51,0.17,1.02,0.17,1.53c0,1.33-0.44,2.69-1.31,4.08c-0.88,1.39-2.14,2.57-3.79,3.54
	c-1.65,0.98-3.27,1.5-4.84,1.56c-1.58,0-2.98-0.52-4.23-1.56c-1.24-1.04-2.11-2.41-2.6-4.09c-0.2-0.64-0.3-1.32-0.3-2.03
	c0-1.07,0.23-2.17,0.7-3.33c0.6-1.4,1.36-2.52,2.3-3.36c0.93-0.84,1.86-1.48,2.78-1.91c0.92-0.43,1.7-0.72,2.35-0.85L417.24-394.19z
	"/>
<path class="st0" d="M432.29-341.23c-1.35-0.33-2.75-1.07-4.19-2.21c-1.44-1.14-2.55-2.85-3.33-5.11c-0.58-2-0.87-4.29-0.87-6.89
	c0-0.49,0.04-1.68,0.12-3.56c0.08-1.89,0.35-4.37,0.82-7.46c0.58-4.7,1.5-8.91,2.78-12.62c1.28-3.71,3.41-6.9,6.41-9.59
	c1.77-1.64,3.68-2.62,5.73-2.93c0.69-0.13,1.38-0.2,2.06-0.2c1.64,0,3.34,0.36,5.09,1.07c2.8,1.35,5.16,3.65,7.11,6.89
	c1.94,3.24,3.48,6.75,4.63,10.53c1.14,3.78,1.91,7.15,2.31,10.1c0.31,1.95,0.47,4.04,0.47,6.26c0,0.71-0.03,2.01-0.1,3.89
	c-0.07,1.89-0.71,4.04-1.93,6.46c-1.22,2.42-3.28,3.97-6.19,4.66c-0.75,0.13-1.48,0.2-2.16,0.2c-1.2,0-2.29-0.21-3.26-0.63
	c-1.31-0.69-2.26-1.79-2.86-3.3c-0.49-1.2-0.73-2.42-0.73-3.66c0-0.31,0.01-0.62,0.03-0.93c0.15-1.04,0.41-2.21,0.77-3.5
	c0.09-0.38,0.19-0.77,0.3-1.16c-0.93-0.24-1.85-0.37-2.76-0.37c-1.38,0-2.73,0.28-4.06,0.83c0.2,0.91,0.42,1.8,0.67,2.66
	c0.6,1.89,0.91,3.66,0.93,5.33v0.07c0,1.62-0.77,3.08-2.3,4.39c-0.64,0.53-1.41,0.89-2.3,1.07c-0.27,0.07-0.57,0.1-0.9,0.1
	C433.89-340.83,433.13-340.96,432.29-341.23z M446.14-361.93c0-1.64-0.23-3.32-0.7-5.03c-0.47-1.71-1.28-3.02-2.43-3.93
	c-0.69-0.49-1.41-0.73-2.16-0.73c-0.07,0-0.32,0.01-0.77,0.02c-0.44,0.01-0.92,0.33-1.43,0.95c-0.44,0.6-0.71,1.42-0.8,2.46
	c-0.07,0.69-0.1,1.44-0.1,2.26c0,0.42,0.01,0.85,0.03,1.3v1.23c0,0.73,0.01,1.5,0.03,2.3c1.26-0.4,2.68-0.69,4.26-0.87
	c0.73-0.09,1.42-0.13,2.06-0.13C444.87-362.1,445.54-362.04,446.14-361.93z"/>
<path class="st0" d="M468.7-366.79c-0.87-0.35-1.79-0.89-2.76-1.61c-0.98-0.72-1.84-1.69-2.6-2.91c-1.26-2.37-1.9-4.91-1.9-7.62
	c0-0.4,0.01-0.81,0.03-1.23c0.33-2.88,1.31-5.3,2.93-7.26c1.6-2,3.36-3.62,5.29-4.86c1.82-1.2,3.69-2.01,5.63-2.43
	c1.22-0.27,2.44-0.4,3.66-0.4c0.8,0,1.6,0.06,2.4,0.17c2,0.33,3.91,0.99,5.73,1.96c1.86,0.93,3.43,2.12,4.69,3.56
	c1.13,1.49,1.89,3.1,2.26,4.83c0.47,1.62,0.7,3.26,0.7,4.93v0.23c0,1.84-0.41,3.49-1.23,4.96c-0.87,1.38-2.22,2.36-4.06,2.96
	c-2,0.58-3.86,0.87-5.59,0.87h-0.57c-1.2,0-2.05-0.19-2.56-0.57c-0.62-0.53-1.08-1.26-1.36-2.2c-0.16-0.44-0.3-0.89-0.43-1.33
	c-0.13-0.42-0.27-0.82-0.4-1.2c-0.24-0.75-0.57-1.28-0.97-1.56c-0.18-0.09-0.36-0.13-0.53-0.13c-0.29,0-0.61,0.12-0.97,0.37
	c-0.58,0.42-1.04,1.05-1.4,1.9c-0.2,0.6-0.3,1.2-0.3,1.8c0,0.24,0.01,0.49,0.03,0.73c0.13,0.89,0.4,1.64,0.8,2.26
	c0.18,0.29,0.43,0.54,0.77,0.77c0.33,0.22,0.82,0.4,1.46,0.53c0.69,0.16,1.48,0.28,2.38,0.38c0.9,0.1,1.7,0.18,2.41,0.25h0.1
	c0.64,0.04,1.19,0.09,1.63,0.13c0.44,0.04,0.9,0.1,1.36,0.17c1.07,0.09,2.16,0.31,3.3,0.67c1.09,0.38,1.99,0.95,2.7,1.73
	c0.67,0.73,1.2,1.76,1.6,3.1c0.31,0.82,0.47,1.8,0.47,2.93c0,0.75-0.07,1.58-0.2,2.46c-0.49,2.4-1.58,4.82-3.26,7.26
	c-1.69,2.31-3.57,4.06-5.66,5.26c-2,1.09-3.99,1.69-5.99,1.8c-0.62,0.04-1.22,0.07-1.8,0.07c-1.33,0-2.59-0.11-3.76-0.33
	c-0.75-0.13-1.49-0.34-2.2-0.63c-0.71-0.29-1.51-0.77-2.4-1.43c-0.93-0.73-1.92-1.61-2.96-2.63c-1.04-1.02-1.95-2.04-2.73-3.06
	c-1.4-1.97-2.1-3.62-2.1-4.93v-0.07c0-1.31,0.37-2.42,1.1-3.33c0.71-0.95,1.62-1.73,2.73-2.33c1.04-0.55,2.3-0.88,3.76-0.97
	c0.24-0.02,0.5-0.03,0.77-0.03c0.51,0,1.1,0.06,1.76,0.17c0.67,0.11,1.32,0.4,1.96,0.87c0.91,0.82,1.62,1.81,2.13,2.96
	c0.18,0.31,0.33,0.6,0.47,0.87c0.64,1.11,1.32,1.69,2.03,1.73c0.11,0.02,0.21,0.03,0.3,0.03c0.69,0,1.34-0.32,1.96-0.97
	c0.69-0.82,1.05-1.81,1.1-2.96c-0.04-1.09-0.41-2.05-1.1-2.9c-0.64-0.84-1.52-1.5-2.63-1.96c-1.2-0.42-2.47-0.69-3.83-0.8
	c-0.09-0.02-0.18-0.03-0.27-0.03C471.49-365.87,470.19-366.19,468.7-366.79z"/>
<path class="st1" d="M63.12,9.52c0.94,0.16,1.64,0.54,2.09,1.14c0.45,0.59,0.72,1.34,0.8,2.24c0.08,1.51,0.11,3.01,0.09,4.48
	c-0.02,1.47-0.13,2.95-0.34,4.42c-0.04,0.37-0.14,0.74-0.31,1.11c-0.16,0.37-0.33,0.72-0.49,1.04c-0.04,0.12-0.18,0.27-0.43,0.43
	c-0.45,0.16-0.89,0.34-1.32,0.52c-0.43,0.18-0.87,0.32-1.32,0.4c-0.86,0.08-1.73,0.08-2.61,0c-0.88-0.08-1.77-0.22-2.67-0.43
	c-0.25-0.65-0.41-1.3-0.49-1.93c-0.08-0.63-0.12-1.3-0.12-2c-0.82-0.08-1.62-0.11-2.39-0.09c-0.78,0.02-1.58,0.19-2.39,0.52
	c-0.08,0.29-0.17,0.57-0.28,0.86c-0.1,0.29-0.15,0.59-0.15,0.92c-0.04,0.74-0.06,1.46-0.06,2.18c0,0.72,0,1.44,0,2.18
	c0.16,0.04,0.41,0.06,0.74,0.06h4.05c0.94,0.04,1.68,0.3,2.21,0.77c0.53,0.47,0.84,1.16,0.92,2.06c0.08,0.74,0.13,1.47,0.15,2.21
	c0.02,0.74,0.05,1.49,0.09,2.27c0,0.33-0.03,0.66-0.09,0.98c-0.06,0.33-0.13,0.66-0.21,0.98c-0.12,0.86-0.61,1.41-1.47,1.66
	c-0.29,0.08-0.57,0.13-0.86,0.15c-0.29,0.02-0.59,0.05-0.92,0.09c-0.61,0.04-1.23,0.06-1.84,0.06c-0.61,0-1.23,0.02-1.84,0.06
	c-0.16,0-0.32,0.01-0.46,0.03c-0.14,0.02-0.32,0.05-0.52,0.09c-0.08,1.19-0.14,2.29-0.18,3.32c-0.12,1.72-0.18,3.4-0.18,5.03
	c-0.04,0.78-0.03,1.55,0.03,2.3c0.06,0.76,0.07,1.53,0.03,2.3c-0.04,0.7-0.08,1.4-0.12,2.12c-0.04,0.72-0.1,1.44-0.18,2.18
	c-0.08,0.74-0.31,1.29-0.68,1.66c-0.37,0.37-0.94,0.63-1.72,0.8C46.7,58.9,45.77,59,44.85,59c-0.92,0-1.83-0.18-2.73-0.55
	c-0.9-0.29-1.47-0.88-1.72-1.78c-0.25-0.9-0.37-1.82-0.37-2.76c-0.04-0.9-0.09-1.8-0.15-2.7c-0.06-0.9-0.09-1.8-0.09-2.7
	c0-1.64,0-3.25,0-4.85s0.02-3.21,0.06-4.85h-0.06c-0.33-0.04-0.64-0.07-0.95-0.09c-0.31-0.02-0.6-0.13-0.89-0.34
	c-0.45-0.25-0.76-0.6-0.92-1.07c-0.16-0.47-0.29-0.93-0.37-1.38c-0.16-0.94-0.22-1.9-0.18-2.89c0.04-0.98,0.1-1.94,0.18-2.89
	c0.04-0.49,0.17-0.87,0.4-1.14c0.22-0.27,0.49-0.45,0.8-0.55c0.31-0.1,0.65-0.16,1.04-0.18c0.39-0.02,0.79-0.03,1.2-0.03
	c0.12-2.29,0.26-4.56,0.4-6.81c0.14-2.25,0.3-4.52,0.46-6.81c0.04-0.45,0.08-0.91,0.12-1.38c0.04-0.47,0.16-0.93,0.37-1.38
	c0.33-0.7,0.82-1.25,1.47-1.66c0.65-0.41,1.33-0.7,2.03-0.86c1.19-0.29,2.43-0.39,3.74-0.31c1.31,0.08,2.56,0.12,3.74,0.12
	c1.31-0.04,2.59-0.05,3.84-0.03c1.25,0.02,2.53,0.03,3.84,0.03c0.49,0,0.99,0.04,1.5,0.12C62.12,9.36,62.63,9.44,63.12,9.52z"/>
<g>
	<g>
		<path class="st0" d="M15.12-333.48c-1.35-0.33-2.75-1.07-4.19-2.21c-1.44-1.14-2.55-2.85-3.33-5.11c-0.58-2-0.87-4.29-0.87-6.89
			c0-0.49,0.04-1.68,0.12-3.56c0.08-1.89,0.35-4.37,0.82-7.46c0.58-4.7,1.5-8.91,2.78-12.62c1.28-3.71,3.41-6.9,6.41-9.59
			c1.78-1.64,3.68-2.62,5.73-2.93c0.69-0.13,1.38-0.2,2.06-0.2c1.64,0,3.34,0.36,5.09,1.07c2.8,1.35,5.16,3.65,7.11,6.89
			c1.94,3.24,3.48,6.75,4.63,10.53c1.14,3.78,1.91,7.15,2.31,10.1c0.31,1.95,0.47,4.04,0.47,6.26c0,0.71-0.03,2.01-0.1,3.89
			c-0.07,1.89-0.71,4.04-1.93,6.46c-1.22,2.42-3.28,3.97-6.19,4.66c-0.75,0.13-1.48,0.2-2.16,0.2c-1.2,0-2.29-0.21-3.26-0.63
			c-1.31-0.69-2.26-1.79-2.86-3.3c-0.49-1.2-0.73-2.42-0.73-3.66c0-0.31,0.01-0.62,0.03-0.93c0.15-1.04,0.41-2.21,0.77-3.5
			c0.09-0.38,0.19-0.77,0.3-1.16c-0.93-0.24-1.85-0.37-2.76-0.37c-1.38,0-2.73,0.28-4.06,0.83c0.2,0.91,0.42,1.8,0.67,2.66
			c0.6,1.89,0.91,3.66,0.93,5.33v0.07c0,1.62-0.77,3.08-2.3,4.39c-0.64,0.53-1.41,0.89-2.3,1.07c-0.27,0.07-0.57,0.1-0.9,0.1
			C16.72-333.08,15.97-333.21,15.12-333.48z M28.97-354.18c0-1.64-0.23-3.32-0.7-5.03c-0.47-1.71-1.28-3.02-2.43-3.93
			c-0.69-0.49-1.41-0.73-2.16-0.73c-0.07,0-0.32,0.01-0.77,0.02c-0.44,0.01-0.92,0.33-1.43,0.95c-0.44,0.6-0.71,1.42-0.8,2.46
			c-0.07,0.69-0.1,1.44-0.1,2.26c0,0.42,0.01,0.85,0.03,1.3v1.23c0,0.73,0.01,1.5,0.03,2.3c1.26-0.4,2.68-0.69,4.26-0.87
			c0.73-0.09,1.42-0.13,2.06-0.13C27.7-354.35,28.37-354.29,28.97-354.18z"/>
		<path class="st0" d="M55.53-368.43l0.73-0.07c0.15-0.02,0.32-0.03,0.5-0.03c0.35,0,0.83,0.04,1.41,0.12
			c0.59,0.08,1.22,0.29,1.9,0.63c0.68,0.34,1.23,0.88,1.65,1.61c0.42,0.69,0.63,1.64,0.63,2.86v0.8c0,2.69,0.27,5.25,0.8,7.69
			c0.31,1.53,0.58,3.21,0.8,5.03c0.22,1.66,0.33,3.59,0.33,5.79v0.6c-0.07,3.04-0.81,5.26-2.23,6.66c-1.42,1.4-3.28,2.26-5.59,2.6
			c-1.42,0.2-2.93,0.3-4.53,0.3c-0.95,0-1.94-0.03-2.96-0.1c-1.91-0.2-3.15-1.31-3.73-3.33c-0.36-1.31-0.53-2.81-0.53-4.49
			c0-0.95,0.1-2.44,0.3-4.44c0.2-2.01,0.64-4.49,1.33-7.46c0.69-2.96,1.31-5.46,1.86-7.51c0.02-0.11,0.04-0.21,0.07-0.3
			c0.42-1.51,0.94-2.73,1.55-3.66c0.61-0.93,1.24-1.64,1.9-2.11c0.65-0.48,1.27-0.8,1.85-0.97c0.58-0.17,1.05-0.25,1.43-0.25
			L55.53-368.43z M56.76-386.44c0.18-0.02,0.37-0.03,0.57-0.03c0.67,0,1.47,0.14,2.41,0.43c0.94,0.29,1.87,0.93,2.8,1.91
			c0.92,0.99,1.6,2.42,2.05,4.31c0.11,0.51,0.17,1.02,0.17,1.53c0,1.33-0.44,2.69-1.31,4.08c-0.88,1.39-2.14,2.57-3.79,3.54
			c-1.65,0.98-3.27,1.5-4.84,1.56c-1.58,0-2.98-0.52-4.23-1.56c-1.24-1.04-2.11-2.41-2.6-4.09c-0.2-0.64-0.3-1.32-0.3-2.03
			c0-1.07,0.23-2.17,0.7-3.33c0.6-1.4,1.36-2.52,2.3-3.36c0.93-0.84,1.86-1.48,2.78-1.91c0.92-0.43,1.7-0.72,2.35-0.85L56.76-386.44
			z"/>
		<path class="st0" d="M67.01-381.31l0.87-0.93c0.55-0.62,1.41-1.36,2.56-2.23c1.15-0.87,2.62-1.71,4.39-2.53
			c1.78-0.82,3.87-1.45,6.29-1.9c1.51-0.29,3.15-0.43,4.93-0.43c1.07,0,2.17,0.06,3.33,0.17c4.73,0.51,8.34,1.84,10.83,3.98
			c2.5,2.14,4.28,4.62,5.36,7.42c1.08,2.81,1.87,5.49,2.38,8.04c0.11,0.56,0.23,1.09,0.37,1.6c0.18,0.75,0.27,1.63,0.27,2.63
			c0,1.51-0.26,3.61-0.78,6.31c-0.52,2.7-1.56,5.89-3.13,9.59c-1.56,3.69-3.5,7-5.81,9.9c-2.31,2.91-4.9,4.87-7.79,5.89
			c-3.68,1.18-6.75,1.76-9.19,1.76c-1.35,0-2.52-0.19-3.5-0.57c-2.44-0.93-3.66-2.77-3.66-5.53c0-0.33,0.02-0.68,0.07-1.03
			c0.13-1.4,0.32-2.93,0.57-4.59c0.51-3.13,0.83-6.38,0.97-9.75c0.02-0.4,0.03-0.8,0.03-1.2c0-2.91-0.5-5.58-1.5-8.02l-0.8,0.07
			h-0.2c-0.53,0-1.19-0.07-1.96-0.2c-0.78-0.13-1.61-0.43-2.51-0.88c-0.9-0.45-1.72-1.15-2.46-2.1c-0.74-0.94-1.3-2.2-1.68-3.78
			c-0.33-1.55-0.5-2.96-0.5-4.23c0-0.33,0.03-0.94,0.1-1.83c0.07-0.89,0.27-1.81,0.62-2.76c0.34-0.95,0.69-1.68,1.05-2.16
			L67.01-381.31z M83.99-367.23l0.33,1.7c0.2,1.15,0.42,2.57,0.65,4.24c0.23,1.68,0.39,3.37,0.48,5.08c0.02,0.44,0.03,0.88,0.03,1.3
			c0,1.15-0.09,2.18-0.27,3.06l1.13-0.73c0.73-0.49,1.55-1.15,2.45-1.98c0.9-0.83,1.65-1.79,2.25-2.88c0.47-0.84,0.7-1.72,0.7-2.63
			c0-0.27-0.02-0.53-0.07-0.8c-0.49-2.37-1.45-4.07-2.9-5.09c-1.22-0.87-2.54-1.3-3.96-1.3C84.56-367.26,84.28-367.25,83.99-367.23z
			"/>
		<path class="st0" d="M115.51-368.43l0.73-0.07c0.15-0.02,0.32-0.03,0.5-0.03c0.35,0,0.83,0.04,1.41,0.12
			c0.59,0.08,1.22,0.29,1.9,0.63c0.68,0.34,1.23,0.88,1.65,1.61c0.42,0.69,0.63,1.64,0.63,2.86v0.8c0,2.69,0.27,5.25,0.8,7.69
			c0.31,1.53,0.58,3.21,0.8,5.03c0.22,1.66,0.33,3.59,0.33,5.79v0.6c-0.07,3.04-0.81,5.26-2.23,6.66c-1.42,1.4-3.28,2.26-5.59,2.6
			c-1.42,0.2-2.93,0.3-4.53,0.3c-0.95,0-1.94-0.03-2.96-0.1c-1.91-0.2-3.15-1.31-3.73-3.33c-0.36-1.31-0.53-2.81-0.53-4.49
			c0-0.95,0.1-2.44,0.3-4.44c0.2-2.01,0.64-4.49,1.33-7.46c0.69-2.96,1.31-5.46,1.86-7.51c0.02-0.11,0.04-0.21,0.07-0.3
			c0.42-1.51,0.94-2.73,1.55-3.66c0.61-0.93,1.24-1.64,1.9-2.11c0.65-0.48,1.27-0.8,1.85-0.97c0.58-0.17,1.05-0.25,1.43-0.25
			L115.51-368.43z M116.74-386.44c0.18-0.02,0.37-0.03,0.57-0.03c0.67,0,1.47,0.14,2.41,0.43c0.94,0.29,1.87,0.93,2.8,1.91
			c0.92,0.99,1.6,2.42,2.05,4.31c0.11,0.51,0.17,1.02,0.17,1.53c0,1.33-0.44,2.69-1.31,4.08c-0.88,1.39-2.14,2.57-3.79,3.54
			c-1.65,0.98-3.27,1.5-4.84,1.56c-1.58,0-2.98-0.52-4.23-1.56c-1.24-1.04-2.11-2.41-2.6-4.09c-0.2-0.64-0.3-1.32-0.3-2.03
			c0-1.07,0.23-2.17,0.7-3.33c0.6-1.4,1.36-2.52,2.3-3.36c0.93-0.84,1.86-1.48,2.78-1.91c0.92-0.43,1.7-0.72,2.35-0.85
			L116.74-386.44z"/>
		<path class="st0" d="M131.79-333.48c-1.35-0.33-2.75-1.07-4.19-2.21c-1.44-1.14-2.55-2.85-3.33-5.11c-0.58-2-0.87-4.29-0.87-6.89
			c0-0.49,0.04-1.68,0.12-3.56c0.08-1.89,0.35-4.37,0.82-7.46c0.58-4.7,1.5-8.91,2.78-12.62c1.28-3.71,3.41-6.9,6.41-9.59
			c1.77-1.64,3.68-2.62,5.73-2.93c0.69-0.13,1.38-0.2,2.06-0.2c1.64,0,3.34,0.36,5.09,1.07c2.8,1.35,5.16,3.65,7.11,6.89
			c1.94,3.24,3.48,6.75,4.63,10.53c1.14,3.78,1.91,7.15,2.31,10.1c0.31,1.95,0.47,4.04,0.47,6.26c0,0.71-0.03,2.01-0.1,3.89
			c-0.07,1.89-0.71,4.04-1.93,6.46c-1.22,2.42-3.28,3.97-6.19,4.66c-0.75,0.13-1.48,0.2-2.16,0.2c-1.2,0-2.29-0.21-3.26-0.63
			c-1.31-0.69-2.26-1.79-2.86-3.3c-0.49-1.2-0.73-2.42-0.73-3.66c0-0.31,0.01-0.62,0.03-0.93c0.15-1.04,0.41-2.21,0.77-3.5
			c0.09-0.38,0.19-0.77,0.3-1.16c-0.93-0.24-1.85-0.37-2.76-0.37c-1.38,0-2.73,0.28-4.06,0.83c0.2,0.91,0.42,1.8,0.67,2.66
			c0.6,1.89,0.91,3.66,0.93,5.33v0.07c0,1.62-0.77,3.08-2.3,4.39c-0.64,0.53-1.41,0.89-2.3,1.07c-0.27,0.07-0.57,0.1-0.9,0.1
			C133.39-333.08,132.63-333.21,131.79-333.48z M145.64-354.18c0-1.64-0.23-3.32-0.7-5.03c-0.47-1.71-1.28-3.02-2.43-3.93
			c-0.69-0.49-1.41-0.73-2.16-0.73c-0.07,0-0.32,0.01-0.77,0.02c-0.44,0.01-0.92,0.33-1.43,0.95c-0.44,0.6-0.71,1.42-0.8,2.46
			c-0.07,0.69-0.1,1.44-0.1,2.26c0,0.42,0.01,0.85,0.03,1.3v1.23c0,0.73,0.01,1.5,0.03,2.3c1.26-0.4,2.68-0.69,4.26-0.87
			c0.73-0.09,1.42-0.13,2.06-0.13C144.37-354.35,145.04-354.29,145.64-354.18z"/>
		<path class="st0" d="M168.2-359.04c-0.87-0.35-1.79-0.89-2.76-1.61c-0.98-0.72-1.84-1.69-2.6-2.91c-1.26-2.37-1.9-4.91-1.9-7.62
			c0-0.4,0.01-0.81,0.03-1.23c0.33-2.88,1.31-5.3,2.93-7.26c1.6-2,3.36-3.62,5.29-4.86c1.82-1.2,3.69-2.01,5.63-2.43
			c1.22-0.27,2.44-0.4,3.66-0.4c0.8,0,1.6,0.06,2.4,0.17c2,0.33,3.91,0.99,5.73,1.96c1.86,0.93,3.43,2.12,4.69,3.56
			c1.13,1.49,1.89,3.1,2.26,4.83c0.47,1.62,0.7,3.26,0.7,4.93v0.23c0,1.84-0.41,3.49-1.23,4.96c-0.87,1.38-2.22,2.36-4.06,2.96
			c-2,0.58-3.86,0.87-5.59,0.87h-0.57c-1.2,0-2.05-0.19-2.56-0.57c-0.62-0.53-1.08-1.26-1.36-2.2c-0.16-0.44-0.3-0.89-0.43-1.33
			c-0.13-0.42-0.27-0.82-0.4-1.2c-0.24-0.75-0.57-1.28-0.97-1.56c-0.18-0.09-0.36-0.13-0.53-0.13c-0.29,0-0.61,0.12-0.97,0.37
			c-0.58,0.42-1.04,1.05-1.4,1.9c-0.2,0.6-0.3,1.2-0.3,1.8c0,0.24,0.01,0.49,0.03,0.73c0.13,0.89,0.4,1.64,0.8,2.26
			c0.18,0.29,0.43,0.54,0.77,0.77c0.33,0.22,0.82,0.4,1.46,0.53c0.69,0.16,1.48,0.28,2.38,0.38c0.9,0.1,1.7,0.18,2.41,0.25h0.1
			c0.64,0.04,1.19,0.09,1.63,0.13c0.44,0.04,0.9,0.1,1.36,0.17c1.07,0.09,2.16,0.31,3.3,0.67c1.09,0.38,1.99,0.95,2.7,1.73
			c0.67,0.73,1.2,1.76,1.6,3.1c0.31,0.82,0.47,1.8,0.47,2.93c0,0.75-0.07,1.58-0.2,2.46c-0.49,2.4-1.58,4.82-3.26,7.26
			c-1.69,2.31-3.57,4.06-5.66,5.26c-2,1.09-3.99,1.69-5.99,1.8c-0.62,0.04-1.22,0.07-1.8,0.07c-1.33,0-2.59-0.11-3.76-0.33
			c-0.75-0.13-1.49-0.34-2.2-0.63c-0.71-0.29-1.51-0.77-2.4-1.43c-0.93-0.73-1.92-1.61-2.96-2.63c-1.04-1.02-1.95-2.04-2.73-3.06
			c-1.4-1.97-2.1-3.62-2.1-4.93v-0.07c0-1.31,0.37-2.42,1.1-3.33c0.71-0.95,1.62-1.73,2.73-2.33c1.04-0.55,2.3-0.88,3.76-0.97
			c0.24-0.02,0.5-0.03,0.77-0.03c0.51,0,1.1,0.06,1.76,0.17c0.67,0.11,1.32,0.4,1.96,0.87c0.91,0.82,1.62,1.81,2.13,2.96
			c0.18,0.31,0.33,0.6,0.47,0.87c0.64,1.11,1.32,1.69,2.03,1.73c0.11,0.02,0.21,0.03,0.3,0.03c0.69,0,1.34-0.32,1.96-0.97
			c0.69-0.82,1.05-1.81,1.1-2.96c-0.04-1.09-0.41-2.05-1.1-2.9c-0.64-0.84-1.52-1.5-2.63-1.96c-1.2-0.42-2.47-0.69-3.83-0.8
			c-0.09-0.02-0.18-0.03-0.27-0.03C170.99-358.12,169.69-358.44,168.2-359.04z"/>
	</g>
	<g>
		<path class="st1" d="M61.61-347.54c0.67,0.12,1.16,0.38,1.48,0.8c0.32,0.42,0.51,0.95,0.57,1.59c0.06,1.07,0.08,2.13,0.07,3.17
			c-0.02,1.04-0.09,2.09-0.24,3.13c-0.03,0.26-0.1,0.52-0.22,0.78c-0.12,0.26-0.23,0.51-0.35,0.74c-0.03,0.09-0.13,0.19-0.3,0.3
			c-0.32,0.12-0.63,0.24-0.93,0.37c-0.3,0.13-0.62,0.22-0.93,0.28c-0.61,0.06-1.22,0.06-1.85,0c-0.62-0.06-1.25-0.16-1.89-0.3
			c-0.17-0.46-0.29-0.92-0.35-1.37c-0.06-0.45-0.09-0.92-0.09-1.41c-0.58-0.06-1.15-0.08-1.7-0.07c-0.55,0.01-1.12,0.14-1.7,0.37
			c-0.06,0.2-0.12,0.41-0.2,0.61c-0.07,0.2-0.11,0.42-0.11,0.65c-0.03,0.52-0.04,1.04-0.04,1.54c0,0.51,0,1.02,0,1.54
			c0.12,0.03,0.29,0.04,0.52,0.04h2.87c0.67,0.03,1.19,0.21,1.57,0.54c0.38,0.33,0.59,0.82,0.65,1.46c0.06,0.52,0.09,1.04,0.11,1.56
			c0.01,0.52,0.04,1.06,0.07,1.61c0,0.23-0.02,0.46-0.07,0.7c-0.04,0.23-0.09,0.46-0.15,0.7c-0.09,0.61-0.43,1-1.04,1.17
			c-0.2,0.06-0.41,0.09-0.61,0.11c-0.2,0.01-0.42,0.04-0.65,0.07c-0.43,0.03-0.87,0.04-1.3,0.04c-0.43,0-0.87,0.02-1.3,0.04
			c-0.12,0-0.22,0.01-0.33,0.02c-0.1,0.02-0.22,0.04-0.37,0.07c-0.06,0.84-0.1,1.62-0.13,2.35c-0.09,1.22-0.13,2.41-0.13,3.56
			c-0.03,0.55-0.02,1.09,0.02,1.63c0.04,0.54,0.05,1.08,0.02,1.63c-0.03,0.49-0.06,0.99-0.09,1.5c-0.03,0.51-0.07,1.02-0.13,1.54
			c-0.06,0.52-0.22,0.91-0.48,1.17c-0.26,0.26-0.67,0.45-1.22,0.57c-0.67,0.14-1.33,0.22-1.98,0.22s-1.3-0.13-1.93-0.39
			c-0.64-0.2-1.04-0.62-1.22-1.26c-0.17-0.64-0.26-1.29-0.26-1.96c-0.03-0.64-0.07-1.27-0.11-1.91c-0.04-0.64-0.07-1.28-0.07-1.91
			c0-1.16,0-2.3,0-3.43c0-1.13,0.01-2.27,0.04-3.43h-0.04c-0.23-0.03-0.46-0.05-0.67-0.07c-0.22-0.01-0.43-0.09-0.63-0.24
			c-0.32-0.17-0.54-0.43-0.65-0.76c-0.12-0.33-0.2-0.66-0.26-0.98c-0.12-0.67-0.16-1.35-0.13-2.04c0.03-0.7,0.07-1.38,0.13-2.04
			c0.03-0.35,0.12-0.62,0.28-0.8c0.16-0.19,0.35-0.32,0.57-0.39c0.22-0.07,0.46-0.12,0.74-0.13c0.28-0.01,0.56-0.02,0.85-0.02
			c0.09-1.62,0.18-3.23,0.28-4.83c0.1-1.59,0.21-3.2,0.33-4.83c0.03-0.32,0.06-0.64,0.09-0.98c0.03-0.33,0.12-0.66,0.26-0.98
			c0.23-0.49,0.58-0.88,1.04-1.17c0.46-0.29,0.94-0.49,1.43-0.61c0.84-0.2,1.72-0.28,2.65-0.22c0.93,0.06,1.81,0.09,2.65,0.09
			c0.93-0.03,1.83-0.04,2.72-0.02c0.88,0.02,1.79,0.02,2.72,0.02c0.35,0,0.7,0.03,1.07,0.09C60.9-347.65,61.26-347.59,61.61-347.54z
			"/>
		<path class="st1" d="M78.56-316.71c0.03,0.29,0.04,0.59,0.04,0.89c0,0.3-0.07,0.59-0.22,0.85c-0.15,0.35-0.39,0.61-0.74,0.78
			c-0.35,0.17-0.71,0.32-1.09,0.43c-0.93,0.23-1.86,0.32-2.78,0.26c-0.43,0-0.8-0.07-1.09-0.22c-0.41-0.2-0.72-0.49-0.96-0.87
			c-0.26-0.43-0.41-0.88-0.46-1.33c-0.04-0.45-0.07-0.92-0.07-1.41c0-0.2-0.03-0.4-0.09-0.59c-0.06-0.19-0.17-0.34-0.35-0.46
			c-0.12-0.06-0.24-0.09-0.37-0.11c-0.13-0.01-0.27-0.02-0.41-0.02h-2.09c-0.12,0-0.23,0-0.35,0c-0.12,0-0.23,0.03-0.35,0.09
			c-0.2,0.12-0.35,0.28-0.43,0.48c-0.09,0.2-0.16,0.42-0.22,0.65c-0.09,0.29-0.18,0.6-0.28,0.93c-0.1,0.33-0.23,0.66-0.39,0.98
			c-0.16,0.32-0.35,0.61-0.57,0.87c-0.22,0.26-0.47,0.45-0.76,0.57c-0.23,0.12-0.48,0.19-0.74,0.22s-0.51,0.04-0.74,0.04
			c-0.35,0-0.69,0-1.02,0c-0.33,0-0.67-0.03-1.02-0.09c-0.23-0.03-0.46-0.07-0.67-0.11c-0.22-0.04-0.41-0.14-0.59-0.28
			c-0.23-0.17-0.39-0.4-0.48-0.67c-0.09-0.28-0.13-0.54-0.13-0.8c0.03-0.78,0.14-1.56,0.35-2.33c0.2-0.77,0.41-1.53,0.61-2.28
			c0.32-1.1,0.64-2.2,0.96-3.3c0.32-1.1,0.62-2.22,0.91-3.35c0.26-0.93,0.47-1.87,0.63-2.83c0.16-0.96,0.34-1.9,0.54-2.83
			c0.35-1.65,0.72-3.29,1.11-4.91c0.39-1.62,0.85-3.23,1.37-4.83c0.06-0.17,0.12-0.35,0.2-0.54c0.07-0.19,0.17-0.35,0.28-0.5
			c0.23-0.29,0.53-0.49,0.89-0.61c0.36-0.12,0.73-0.2,1.11-0.26c0.41-0.06,0.83-0.1,1.26-0.13c0.43-0.03,0.85-0.04,1.26-0.04
			c0.49,0,0.98,0.05,1.46,0.15c0.48,0.1,0.89,0.31,1.24,0.63c0.38,0.35,0.63,0.78,0.76,1.3s0.22,1.03,0.28,1.52
			c0.09,0.58,0.19,1.13,0.3,1.65c0.12,0.52,0.22,1.06,0.3,1.61c0.09,0.64,0.16,1.27,0.22,1.89c0.06,0.62,0.17,1.24,0.35,1.85
			c0.14,0.41,0.25,0.82,0.33,1.24c0.07,0.42,0.15,0.83,0.24,1.24c0.06,0.35,0.13,0.7,0.22,1.04c0.09,0.35,0.17,0.7,0.26,1.04
			c0.23,0.93,0.38,1.87,0.46,2.83c0.07,0.96,0.21,1.91,0.41,2.87c0.23,1.1,0.43,2.22,0.61,3.35
			C78.26-319.02,78.42-317.87,78.56-316.71z M70.08-323.84c0.2-0.09,0.28-0.26,0.22-0.52c-0.03-0.58-0.07-1.16-0.13-1.74
			c-0.06-0.58-0.13-1.16-0.22-1.74c-0.06-0.41-0.14-0.81-0.24-1.22c-0.1-0.41-0.2-0.81-0.28-1.22h-0.09c-0.06,0-0.13,0.13-0.22,0.39
			c-0.09,0.26-0.17,0.55-0.26,0.87c-0.09,0.32-0.17,0.62-0.24,0.89c-0.07,0.28-0.12,0.44-0.15,0.5c-0.17,0.52-0.33,1.04-0.48,1.56
			c-0.15,0.52-0.23,1.06-0.26,1.61c-0.06,0.2-0.03,0.36,0.09,0.48c0.09,0.09,0.26,0.13,0.52,0.13c0.23,0,0.48,0.01,0.74,0.02
			c0.26,0.01,0.51,0.02,0.74,0.02C69.94-323.8,70.03-323.81,70.08-323.84z"/>
		<path class="st1" d="M88.12-337.06c-0.5-0.03-0.98-0.03-1.45,0c-0.47,0.03-0.93,0.16-1.37,0.39c-0.2,0.38-0.3,0.78-0.3,1.22
			c0.03,0.75,0.05,1.51,0.07,2.28c0.01,0.77,0.05,1.53,0.11,2.28c0.03,0.52,0.08,1.04,0.15,1.56c0.07,0.52,0.12,1.04,0.15,1.57
			c0.06,0.7,0.08,1.4,0.07,2.11c-0.02,0.71-0.01,1.41,0.02,2.11c0,0.32,0,0.62,0,0.89c0,0.28,0.01,0.57,0.04,0.89
			c0.09,0.78,0.54,1.2,1.37,1.26h1.5c0.24-0.2,0.35-0.49,0.35-0.87v-2.26c-0.06-0.52,0.13-0.88,0.57-1.09
			c1.01-0.55,2.03-0.72,3.04-0.52c1.22,0.23,1.94,0.97,2.17,2.22c0.17,0.9,0.23,1.86,0.17,2.87c-0.03,0.38-0.04,0.75-0.02,1.13
			c0.01,0.38,0.02,0.75,0.02,1.13c0.03,0.41,0.04,0.79,0.02,1.15c-0.02,0.36-0.12,0.73-0.33,1.11c-0.32,0.58-0.77,1-1.35,1.26
			c-0.64,0.29-1.3,0.49-2,0.59c-0.7,0.1-1.39,0.17-2.09,0.2c-0.7,0.03-1.4,0.02-2.11-0.02c-0.71-0.04-1.4-0.07-2.07-0.07
			c-0.38,0-0.75-0.01-1.13-0.02c-0.38-0.02-0.74-0.08-1.09-0.2c-0.67-0.23-1.25-0.6-1.74-1.11c-0.49-0.51-0.88-1.08-1.17-1.72
			c-0.29-0.61-0.49-1.25-0.61-1.93c-0.12-0.68-0.2-1.37-0.26-2.06c-0.23-1.88-0.38-3.75-0.43-5.61c-0.06-1.85-0.06-3.72,0-5.61
			c0.09-1.91,0.22-3.83,0.39-5.74c0.09-0.78,0.14-1.6,0.17-2.46c0.03-0.85,0.17-1.64,0.43-2.37c0.17-0.43,0.45-0.75,0.83-0.96
			c0.55-0.29,1.12-0.49,1.72-0.61c0.59-0.12,1.21-0.18,1.85-0.2c0.64-0.01,1.27,0,1.89,0.04c0.62,0.04,1.24,0.07,1.85,0.07
			c0.67,0.03,1.33,0.07,2,0.13c0.67,0.06,1.32,0.2,1.96,0.43c0.87,0.35,1.5,0.83,1.89,1.46c0.39,0.62,0.64,1.31,0.76,2.06
			c0.12,0.75,0.15,1.54,0.11,2.37c-0.04,0.83-0.07,1.62-0.07,2.37c0.03,1.07-0.42,1.86-1.35,2.35c-0.41,0.23-0.83,0.41-1.26,0.54
			s-0.88,0.21-1.35,0.24c-0.61,0-1.17-0.22-1.7-0.65c-0.24-0.2-0.38-0.43-0.42-0.7c-0.04-0.26-0.04-0.54,0.02-0.83
			c0.09-0.43,0.12-0.88,0.09-1.33C88.22-336.14,88.18-336.59,88.12-337.06z"/>
		<path class="st1" d="M100.25-337.15c-0.49,0.03-0.97,0.04-1.43,0.04c-0.46,0-0.91,0.02-1.35,0.04c-0.67,0-1.12-0.1-1.35-0.3
			c-0.23-0.2-0.36-0.64-0.39-1.3c-0.03-0.52-0.04-1.04-0.04-1.54c0-0.51,0-1.01,0-1.5c0-0.14,0-0.28,0-0.39
			c0-0.12,0.03-0.25,0.09-0.39c0.03-0.09,0.07-0.19,0.11-0.3c0.04-0.12,0.11-0.2,0.2-0.26c0.2-0.17,0.41-0.33,0.61-0.48
			c0.2-0.14,0.46-0.23,0.78-0.26c0.58-0.06,1.14-0.12,1.7-0.2c0.55-0.07,1.12-0.14,1.7-0.2c0.35-0.06,0.7-0.09,1.04-0.11
			c0.35-0.01,0.7-0.04,1.04-0.07h0.91c1.16,0,2.32-0.01,3.48-0.02c1.16-0.01,2.33-0.02,3.52-0.02c1.1,0.03,2.2,0.07,3.3,0.13
			c1.1,0.06,2.2,0.1,3.3,0.13c0.2,0,0.4,0.01,0.59,0.02c0.19,0.02,0.35,0.08,0.5,0.2c0.29,0.17,0.47,0.43,0.54,0.78
			c0.07,0.35,0.11,0.68,0.11,1c0.03,0.84-0.02,1.67-0.13,2.48c-0.03,0.35-0.09,0.7-0.2,1.04c-0.1,0.35-0.31,0.61-0.63,0.78
			c-0.23,0.15-0.47,0.22-0.72,0.24c-0.25,0.02-0.49,0.02-0.72,0.02c-0.15,0-0.48-0.01-1-0.02c-0.52-0.01-1.14-0.03-1.85-0.04
			c-0.71-0.01-1.46-0.03-2.26-0.04c-0.8-0.01-1.53-0.02-2.2-0.02c-0.67,0-1.22,0.02-1.65,0.04c-0.43,0.03-0.65,0.06-0.65,0.09v0.65
			c-0.03,1.68-0.04,3.36-0.04,5.04c0,1.68-0.03,3.38-0.09,5.09c0,0.29-0.02,0.57-0.04,0.83c-0.03,0.26-0.07,0.54-0.13,0.83
			c0,0.17,0,0.34,0,0.5c0,0.16-0.02,0.33-0.04,0.5c-0.06,0.64-0.07,1.27-0.04,1.89c0.03,0.62-0.03,1.25-0.17,1.89
			c-0.06,0.35-0.08,0.7-0.07,1.04c0.01,0.35,0.01,0.71-0.02,1.09v2c0,0.78-0.33,1.42-1,1.91c-0.12,0.12-0.23,0.19-0.35,0.22
			c-1.45,0.55-2.83,0.51-4.13-0.13c-0.9-0.43-1.36-1.16-1.39-2.17c-0.12-2-0.17-3.98-0.17-5.93s0.03-3.92,0.09-5.89
			c0.03-0.87,0.08-1.73,0.15-2.59c0.07-0.85,0.15-1.7,0.24-2.54c0.03-0.49,0.07-0.98,0.11-1.46c0.04-0.48,0.09-0.96,0.15-1.46
			V-337.15z M122.64-318.28c-0.06,0.23-0.12,0.42-0.17,0.57c-0.17,0.61-0.43,1.19-0.78,1.74c-0.35,0.55-0.8,0.99-1.35,1.3
			c-0.49,0.32-1.04,0.55-1.65,0.7c-0.61,0.15-1.23,0.25-1.87,0.3c-0.64,0.06-1.28,0.07-1.91,0.02c-0.64-0.04-1.23-0.11-1.78-0.2
			c-0.58-0.09-1.15-0.25-1.7-0.5c-0.55-0.25-1.03-0.6-1.44-1.06c-0.58-0.67-0.93-1.43-1.06-2.3c-0.13-0.87-0.22-1.74-0.28-2.61
			c-0.06-0.9-0.11-1.78-0.15-2.65c-0.04-0.87-0.05-1.74-0.02-2.61c0-0.72,0.01-1.44,0.02-2.15c0.01-0.71,0.04-1.43,0.07-2.15
			c0-0.49-0.04-1.05-0.11-1.67c-0.07-0.62,0.01-1.18,0.24-1.67c0.29-0.67,0.59-1.26,0.91-1.78c0.29-0.46,0.67-0.77,1.13-0.93
			c0.46-0.16,0.96-0.25,1.48-0.28c0.93-0.06,1.87-0.08,2.83-0.07c0.96,0.01,1.9,0.09,2.83,0.24c0.38,0.06,0.75,0.09,1.13,0.11
			c0.38,0.02,0.75,0.05,1.13,0.11c1.33,0.12,2.17,0.8,2.52,2.04c0.23,0.81,0.42,1.61,0.57,2.39c0.14,0.78,0.17,1.59,0.09,2.43
			c-0.03,0.15-0.04,0.29-0.04,0.43c0,0.15,0,0.29,0,0.43c0,1.1-0.04,2.2-0.11,3.3c-0.07,1.1-0.14,2.2-0.2,3.3
			c-0.03,0.55-0.06,1.09-0.09,1.63C122.83-319.33,122.76-318.8,122.64-318.28z M113.99-322.67c0,0.32,0.01,0.63,0.02,0.93
			c0.01,0.3,0.02,0.62,0.02,0.93c0,0.2,0.01,0.35,0.04,0.43c0.06,0.15,0.17,0.26,0.33,0.35c0.16,0.09,0.33,0.16,0.5,0.22
			c0.32,0.06,0.63,0.08,0.93,0.07c0.3-0.01,0.57-0.12,0.8-0.33c0.26-0.23,0.42-0.51,0.48-0.85c0.06-0.33,0.09-0.67,0.09-1.02
			c0.03-0.43,0.04-0.86,0.02-1.28c-0.02-0.42-0.02-0.86-0.02-1.33c0-0.35-0.01-0.61-0.02-0.78c-0.02-0.17-0.03-0.33-0.04-0.48
			c-0.02-0.14-0.03-0.31-0.04-0.5c-0.02-0.19-0.04-0.46-0.07-0.8c-0.03-0.32-0.07-0.62-0.13-0.89c-0.06-0.28-0.12-0.53-0.17-0.76
			c-0.2-0.23-0.4-0.37-0.59-0.41c-0.19-0.04-0.4-0.07-0.63-0.07c-0.35,0.06-0.66,0.19-0.93,0.39c-0.28,0.2-0.41,0.45-0.41,0.74
			c-0.03,0.41-0.07,0.8-0.11,1.17c-0.04,0.38-0.07,0.75-0.07,1.13V-322.67z"/>
		<path class="st1" d="M135.55-326.15c0.55,1.65,1.12,3.29,1.72,4.91c0.59,1.62,1.27,3.23,2.02,4.83c0.17,0.38,0.33,0.78,0.46,1.22
			c0.13,0.43,0.08,0.83-0.15,1.17c-0.15,0.26-0.36,0.45-0.65,0.57c-0.29,0.12-0.59,0.2-0.91,0.24c-0.32,0.04-0.65,0.06-0.98,0.04
			c-0.33-0.02-0.63-0.02-0.89-0.02s-0.53-0.02-0.8-0.07c-0.28-0.04-0.53-0.15-0.76-0.33c-0.17-0.14-0.31-0.3-0.41-0.48
			c-0.1-0.17-0.2-0.36-0.28-0.57c-0.32-0.67-0.62-1.34-0.91-2.02c-0.29-0.68-0.58-1.37-0.87-2.07c-0.29-0.61-0.55-1.24-0.78-1.89
			c-0.23-0.65-0.51-1.27-0.83-1.85c-0.03,0.41-0.07,0.8-0.11,1.17c-0.04,0.38-0.07,0.77-0.07,1.17c0.06,0.87,0.08,1.75,0.07,2.63
			c-0.02,0.88-0.09,1.76-0.24,2.63c-0.15,0.7-0.52,1.13-1.13,1.3c-0.61,0.14-1.22,0.23-1.83,0.26c-0.61,0.03-1.22-0.07-1.83-0.3
			c-0.35-0.14-0.58-0.3-0.7-0.46c-0.12-0.16-0.17-0.44-0.17-0.85c0.03-0.78,0.06-1.56,0.09-2.35c0.03-0.78,0.04-1.58,0.04-2.39
			c0-0.67-0.02-1.32-0.04-1.96c-0.03-0.64-0.04-1.29-0.04-1.96c-0.03-0.35-0.05-0.7-0.07-1.04c-0.02-0.35-0.01-0.7,0.02-1.04
			l0.26-2.87c0.03-0.17,0.04-0.35,0.04-0.54c0-0.19,0-0.38,0-0.59c-0.09-0.93-0.12-1.85-0.11-2.78c0.01-0.93,0.05-1.85,0.11-2.78
			v-0.43c0.06-0.84,0.09-1.69,0.11-2.54c0.01-0.85,0.04-1.7,0.07-2.54c0.03-0.41,0.07-0.8,0.13-1.2c0.06-0.39,0.17-0.78,0.35-1.15
			c0.17-0.41,0.43-0.7,0.78-0.87c0.67-0.32,1.29-0.46,1.87-0.43c1.28,0,2.53-0.01,3.76-0.04c1.23-0.03,2.48-0.01,3.76,0.04
			c0.67,0.03,1.32,0.15,1.96,0.35c0.64,0.2,1.16,0.58,1.56,1.13c0.29,0.41,0.48,0.86,0.59,1.35c0.1,0.49,0.15,1,0.15,1.52
			s-0.03,1.04-0.09,1.56c-0.06,0.52-0.1,1.01-0.13,1.48c-0.06,0.75-0.09,1.49-0.09,2.2c0,0.71-0.03,1.44-0.09,2.2
			c-0.03,0.52-0.07,1.04-0.11,1.56c-0.04,0.52-0.15,1.03-0.33,1.52c-0.15,0.49-0.38,0.94-0.72,1.35c-0.33,0.41-0.75,0.71-1.24,0.91
			c-0.43,0.15-0.87,0.23-1.3,0.26c-0.06,0.03-0.11,0.04-0.15,0.04c-0.04,0-0.09,0.03-0.15,0.09c-0.06,0.06-0.08,0.13-0.07,0.22
			c0.01,0.09,0.04,0.17,0.07,0.26c0,0.06,0.01,0.09,0.02,0.11C135.54-326.24,135.55-326.2,135.55-326.15z M133.03-333.23
			c0.32-0.17,0.51-0.38,0.59-0.63c0.07-0.25,0.12-0.53,0.15-0.85c0-0.32,0.01-0.63,0.02-0.93c0.01-0.3,0.02-0.62,0.02-0.93
			c0-0.14,0-0.3,0-0.48c0-0.17-0.01-0.33-0.04-0.48c0-0.32-0.17-0.51-0.52-0.57c-0.23-0.06-0.46-0.11-0.67-0.15
			c-0.22-0.04-0.44-0.09-0.67-0.15c-0.23-0.03-0.45-0.06-0.65-0.09c-0.2-0.03-0.41,0.03-0.61,0.17c-0.12,0.32-0.2,0.74-0.26,1.26
			c-0.06,0.52-0.09,1.05-0.11,1.59c-0.02,0.54-0.01,1.05,0.02,1.54c0.03,0.49,0.09,0.86,0.17,1.09c0.43,0.06,0.86,0.02,1.28-0.11
			C132.17-333.08,132.6-333.17,133.03-333.23z"/>
		<path class="st1" d="M147.16-330.32c-1.01-1.83-2.01-3.64-2.98-5.43c-0.97-1.8-1.93-3.61-2.89-5.43
			c-0.15-0.32-0.28-0.66-0.41-1.02c-0.13-0.36-0.12-0.7,0.02-1.02c0.14-0.38,0.42-0.64,0.83-0.78c0.41-0.14,0.81-0.25,1.22-0.3
			c0.61-0.09,1.2-0.13,1.78-0.13c0.2,0,0.41,0.01,0.61,0.02c0.2,0.01,0.39,0.07,0.57,0.15c0.41,0.15,0.78,0.44,1.13,0.89
			c0.35,0.45,0.61,0.88,0.78,1.28c0.29,0.67,0.63,1.3,1.02,1.89c0.39,0.59,0.75,1.22,1.06,1.89c0.06,0.09,0.13,0.17,0.22,0.26
			c0.09,0.09,0.17,0.19,0.26,0.3c0.23-0.32,0.44-0.65,0.63-1c0.19-0.35,0.38-0.68,0.59-1l1.3-2.22c0.2-0.32,0.41-0.63,0.63-0.93
			c0.22-0.3,0.48-0.57,0.8-0.8c0.38-0.23,0.79-0.38,1.24-0.46c0.45-0.07,0.89-0.12,1.33-0.15c0.35,0,0.7,0.03,1.04,0.09
			c0.35,0.06,0.64,0.2,0.87,0.43c0.14,0.15,0.25,0.32,0.3,0.52c0.06,0.2,0.12,0.42,0.17,0.65c0.06,0.29,0.08,0.58,0.07,0.87
			c-0.02,0.29-0.05,0.59-0.11,0.91c-0.06,0.32-0.15,0.61-0.28,0.87c-0.13,0.26-0.25,0.54-0.37,0.83c-0.2,0.61-0.43,1.21-0.7,1.8
			c-0.26,0.59-0.55,1.18-0.87,1.76c-0.52,1.04-1.01,2.11-1.46,3.2c-0.45,1.09-0.86,2.2-1.24,3.33c-0.29,0.93-0.65,1.83-1.09,2.7
			c-0.43,0.87-0.83,1.77-1.17,2.7c-0.35,0.93-0.69,1.86-1.02,2.8c-0.33,0.94-0.7,1.88-1.11,2.8c-0.17,0.41-0.36,0.81-0.57,1.22
			c-0.2,0.41-0.46,0.78-0.78,1.13c-0.29,0.35-0.62,0.66-1,0.93c-0.38,0.28-0.78,0.46-1.22,0.54c-0.29,0.09-0.58,0.13-0.87,0.13
			c-0.29,0-0.59,0-0.91,0c-0.41,0-0.77-0.06-1.09-0.17c-0.46-0.26-0.77-0.68-0.91-1.26c-0.06-0.26-0.08-0.52-0.07-0.78
			c0.01-0.26,0.05-0.52,0.11-0.78c0.09-0.46,0.21-0.92,0.37-1.37c0.16-0.45,0.31-0.89,0.46-1.33c0.61-1.74,1.22-3.47,1.83-5.2
			c0.61-1.72,1.23-3.46,1.87-5.2V-330.32z"/>
	</g>
</g>
</svg>
