<?xml version="1.0" encoding="utf-8"?>
<!-- Generator: Adobe Illustrator 28.0.0, SVG Export Plug-In . SVG Version: 6.00 Build 0)  -->
<svg version="1.1" id="Layer_1" xmlns="http://www.w3.org/2000/svg" xmlns:xlink="http://www.w3.org/1999/xlink" x="0px" y="0px"
	 viewBox="0 0 491.84 496.94" style="enable-background:new 0 0 491.84 496.94;" xml:space="preserve">
<style type="text/css">
	.st0{fill:#FEFEFE;}
	.st1{fill:#E1B124;}
	.st2{fill:#265593;}
	.st3{fill:#E1B124;stroke:#F1F1F2;stroke-width:1.1556;stroke-miterlimit:10;}
</style>
<path class="st0" d="M1047,525.59c0-52.05-0.04-104.1,0.08-156.14c0.01-3.37-0.63-4.39-4.21-4.33c-15.3,0.23-30.61,0.04-45.92,0.16
	c-2.6,0.02-3.51-0.49-3.48-3.34c0.16-15.58,0.17-31.17-0.01-46.76c-0.04-3.14,1.06-3.5,3.77-3.48c15.17,0.13,30.34-0.04,45.5,0.14
	c3.33,0.04,4.4-0.56,4.36-4.18c-0.21-19.2-0.11-38.41-0.1-57.61c0.03-30.15,11.92-54.41,36.35-72.2
	c13.48-9.81,28.75-15.01,45.43-15.53c10.98-0.34,21.99-0.06,32.98-0.22c2.45-0.04,2.98,0.77,2.97,3.08
	c-0.1,15.73-0.14,31.45,0.03,47.18c0.03,2.99-1.12,3.34-3.63,3.31c-8.9-0.12-17.81-0.09-26.72-0.04
	c-20.46,0.1-33.9,13.58-33.94,34.07c-0.04,19.34,0.06,38.69-0.08,58.03c-0.02,3.1,0.55,4.17,3.97,4.14
	c19.2-0.19,38.41-0.04,57.61-0.15c3-0.02,4.07,0.15,3.1,3.73c-4.18,15.4-8.07,30.88-11.84,46.39c-0.66,2.7-1.66,3.49-4.39,3.46
	c-14.89-0.14-29.78,0.05-44.67-0.16c-3.24-0.04-3.78,0.9-3.78,3.91c0.1,52.19,0.07,104.37,0.07,156.56
	C1082.64,525.59,1064.82,525.59,1047,525.59z"/>
<path class="st1" d="M459.89,402.37c0.02-0.7,0.06-1.39,0.06-2.09c0-106.9,0.06-213.79-0.04-320.69
	c-0.02-24.23-15.6-44.7-38.34-51.35c-5.24-1.53-10.59-2.23-16.04-2.23c-106.2,0.01-212.39-0.03-318.59,0.03
	c-27.51,0.01-48.58,17.6-53.83,44.64c-0.11,0.56-0.2,1.08-0.82,1.28c0,111.93,0,223.86,0,335.79c0.92,3.46,0.67,7.09,2.02,10.52
	c7.96,20.14,22.06,32.56,43.92,35.42c55.96,0,111.93,0,167.89,0c1.52-1.75,1.28-3.9,1.28-5.97c0.02-49.42,0.03-98.84,0-148.26
	c0-6.65-0.8-7.41-7.48-7.43c-13.5-0.04-27.01,0.02-40.51-0.03c-5.02-0.02-5.43-0.43-5.44-5.53c-0.04-13.23-0.04-26.45,0-39.68
	c0.01-5.34,0.32-5.63,5.71-5.64c13.36-0.03,26.73,0.01,40.09-0.02c7-0.02,7.62-0.63,7.63-7.64c0.03-18.93,0.04-37.87-0.01-56.8
	c-0.01-4.47,0.34-8.89,0.99-13.31c5.4-36.69,34.97-66.05,71.69-70.99c12.88-1.73,25.86-0.45,38.79-0.74
	c3.37-0.08,3.75,2.07,3.75,4.69c-0.01,13.78,0.04,27.56-0.03,41.35c-0.02,4.22-0.59,4.74-4.93,4.78
	c-8.07,0.08-16.15,0.01-24.22,0.03c-20.89,0.06-35.04,14.23-35.12,35.23c-0.06,14.48-0.02,28.96-0.01,43.43
	c0,5.01-0.03,10.02,0.04,15.03c0.05,3.25,1.61,4.87,4.87,4.89c1.53,0.01,3.06,0.05,4.59,0.05c16.84,0.01,33.69-0.03,50.53,0.02
	c4.58,0.01,4.9,0.45,3.75,4.84c-3.5,13.47-6.55,27.06-10.33,40.46c-1.5,5.31-1.69,5.52-7.12,5.54c-13.09,0.04-26.17-0.03-39.26,0.03
	c-6.16,0.03-7.06,0.89-7.06,7c-0.04,49.7-0.03,99.4-0.01,149.1c0,1.94-0.14,3.93,1.28,5.56c37.59,0,75.18,0,112.76,0
	c4.13-1.39,8.51-1.77,12.63-3.3C445.11,442.96,459.13,423.78,459.89,402.37z M405.18,432.27c-27-0.02-54.01-0.05-81.01,0.06
	c-2.63,0.01-3.22-0.75-3.21-3.27c0.08-37.03,0.1-74.05-0.02-111.08c-0.01-3.04,1.2-3.28,3.64-3.26c13.36,0.09,26.73-0.04,40.09,0.11
	c2.6,0.03,3.59-0.84,4.2-3.24c7.54-29.88,15.1-59.75,22.86-89.57c0.86-3.31,0.03-3.65-2.89-3.64c-21.16,0.09-42.32-0.02-63.47,0.13
	c-3.28,0.02-4.53-0.5-4.45-4.19c0.27-12.24,0.07-24.5,0.11-36.75c0.03-8.38,4.17-12.55,12.54-12.58c15.87-0.05,31.74-0.09,47.6,0.05
	c2.97,0.03,4-0.52,3.98-3.8c-0.15-29.65-0.11-59.3-0.05-88.95c0-2.43-0.2-3.72-3.28-3.65c-19.61,0.45-39.27-0.86-58.85,0.73
	c-30.54,2.48-55.49,16.02-74.72,39.74c-16.4,20.21-23.64,43.72-23.57,69.61c0.03,12.11-0.08,24.22,0.07,36.33
	c0.03,2.77-0.78,3.46-3.48,3.43c-15.45-0.12-30.9,0.01-46.35-0.12c-2.88-0.02-3.77,0.71-3.76,3.69c0.11,29.65,0.12,59.3-0.01,88.95
	c-0.02,3.31,1.1,3.85,4.06,3.82c15.17-0.14,30.34,0,45.52-0.12c2.85-0.02,4.06,0.31,4.05,3.72c-0.15,36.61-0.14,73.22-0.01,109.83
	c0.01,3.27-0.82,4.11-4.09,4.1c-44.12-0.11-88.25-0.34-132.37,0.04c-20.13,0.18-34.84-14.52-34.7-34.77
	c0.37-52.61,0.12-105.23,0.12-157.85c0-52.48,0.06-104.96-0.05-157.43c-0.02-11.56,3.55-21.24,12.89-28.42
	c6.47-4.96,13.92-6.5,21.92-6.49c33.68,0.07,67.37,0.03,101.06,0.03c71.27,0,142.54,0.05,213.8-0.05c11.72-0.02,21.53,3.49,28.79,13
	c4.95,6.48,6.42,13.95,6.41,21.95c-0.06,50.11-0.03,100.22-0.03,150.33c0,54.98-0.05,109.97,0.04,164.95
	c0.02,11.41-3.57,20.96-12.75,28.06C419.74,430.39,412.77,432.27,405.18,432.27z"/>
<g>
	<g>
		<path class="st2" d="M219.78,814.64c-1.35-0.33-2.75-1.07-4.19-2.21c-1.44-1.14-2.55-2.85-3.33-5.11c-0.58-2-0.87-4.29-0.87-6.89
			c0-0.49,0.04-1.68,0.12-3.56c0.08-1.89,0.35-4.37,0.82-7.46c0.58-4.7,1.5-8.91,2.78-12.62c1.28-3.71,3.41-6.9,6.41-9.59
			c1.78-1.64,3.68-2.62,5.73-2.93c0.69-0.13,1.38-0.2,2.06-0.2c1.64,0,3.34,0.36,5.09,1.07c2.8,1.35,5.16,3.65,7.11,6.89
			c1.94,3.24,3.48,6.75,4.63,10.53c1.14,3.78,1.91,7.15,2.31,10.1c0.31,1.95,0.47,4.04,0.47,6.26c0,0.71-0.03,2.01-0.1,3.89
			c-0.07,1.89-0.71,4.04-1.93,6.46c-1.22,2.42-3.28,3.97-6.19,4.66c-0.75,0.13-1.48,0.2-2.16,0.2c-1.2,0-2.29-0.21-3.26-0.63
			c-1.31-0.69-2.26-1.79-2.86-3.3c-0.49-1.2-0.73-2.42-0.73-3.66c0-0.31,0.01-0.62,0.03-0.93c0.15-1.04,0.41-2.21,0.77-3.5
			c0.09-0.38,0.19-0.77,0.3-1.16c-0.93-0.24-1.85-0.37-2.76-0.37c-1.38,0-2.73,0.28-4.06,0.83c0.2,0.91,0.42,1.8,0.67,2.66
			c0.6,1.89,0.91,3.66,0.93,5.33v0.07c0,1.62-0.77,3.08-2.3,4.39c-0.64,0.53-1.41,0.89-2.3,1.07c-0.27,0.07-0.57,0.1-0.9,0.1
			C221.38,815.04,220.62,814.9,219.78,814.64z M233.63,793.93c0-1.64-0.23-3.32-0.7-5.03c-0.47-1.71-1.28-3.02-2.43-3.93
			c-0.69-0.49-1.41-0.73-2.16-0.73c-0.07,0-0.32,0.01-0.77,0.02c-0.44,0.01-0.92,0.33-1.43,0.95c-0.44,0.6-0.71,1.42-0.8,2.46
			c-0.07,0.69-0.1,1.44-0.1,2.26c0,0.42,0.01,0.85,0.03,1.3v1.23c0,0.73,0.01,1.5,0.03,2.3c1.26-0.4,2.68-0.69,4.26-0.87
			c0.73-0.09,1.42-0.13,2.06-0.13C232.36,793.77,233.03,793.82,233.63,793.93z"/>
		<path class="st2" d="M260.19,779.69l0.73-0.07c0.15-0.02,0.32-0.03,0.5-0.03c0.35,0,0.83,0.04,1.41,0.12
			c0.59,0.08,1.22,0.29,1.9,0.63c0.68,0.34,1.23,0.88,1.65,1.61c0.42,0.69,0.63,1.64,0.63,2.86v0.8c0,2.69,0.27,5.25,0.8,7.69
			c0.31,1.53,0.58,3.21,0.8,5.03c0.22,1.66,0.33,3.59,0.33,5.79v0.6c-0.07,3.04-0.81,5.26-2.23,6.66c-1.42,1.4-3.28,2.26-5.59,2.6
			c-1.42,0.2-2.93,0.3-4.53,0.3c-0.95,0-1.94-0.03-2.96-0.1c-1.91-0.2-3.15-1.31-3.73-3.33c-0.36-1.31-0.53-2.81-0.53-4.49
			c0-0.95,0.1-2.44,0.3-4.44c0.2-2.01,0.64-4.49,1.33-7.46c0.69-2.96,1.31-5.46,1.86-7.51c0.02-0.11,0.04-0.21,0.07-0.3
			c0.42-1.51,0.94-2.73,1.55-3.66c0.61-0.93,1.24-1.64,1.9-2.11c0.65-0.48,1.27-0.8,1.85-0.97c0.58-0.17,1.05-0.25,1.43-0.25
			L260.19,779.69z M261.42,761.68c0.18-0.02,0.37-0.03,0.57-0.03c0.67,0,1.47,0.14,2.41,0.43c0.94,0.29,1.88,0.93,2.8,1.91
			c0.92,0.99,1.6,2.42,2.05,4.31c0.11,0.51,0.17,1.02,0.17,1.53c0,1.33-0.44,2.69-1.31,4.08c-0.88,1.39-2.14,2.57-3.79,3.54
			c-1.65,0.98-3.27,1.5-4.84,1.56c-1.58,0-2.98-0.52-4.23-1.56c-1.24-1.04-2.11-2.41-2.6-4.09c-0.2-0.64-0.3-1.32-0.3-2.03
			c0-1.07,0.23-2.17,0.7-3.33c0.6-1.4,1.36-2.52,2.3-3.36c0.93-0.84,1.86-1.48,2.78-1.91c0.92-0.43,1.7-0.72,2.35-0.85
			L261.42,761.68z"/>
		<path class="st2" d="M271.67,766.81l0.87-0.93c0.55-0.62,1.41-1.36,2.56-2.23c1.15-0.87,2.62-1.71,4.39-2.53
			c1.78-0.82,3.87-1.45,6.29-1.9c1.51-0.29,3.15-0.43,4.93-0.43c1.07,0,2.17,0.06,3.33,0.17c4.73,0.51,8.34,1.84,10.83,3.98
			c2.5,2.14,4.28,4.62,5.36,7.42c1.08,2.81,1.87,5.49,2.38,8.04c0.11,0.56,0.23,1.09,0.37,1.6c0.18,0.75,0.27,1.63,0.27,2.63
			c0,1.51-0.26,3.61-0.78,6.31c-0.52,2.7-1.56,5.89-3.13,9.59c-1.56,3.69-3.5,7-5.81,9.9c-2.31,2.91-4.9,4.87-7.79,5.89
			c-3.68,1.18-6.75,1.76-9.19,1.76c-1.35,0-2.52-0.19-3.5-0.57c-2.44-0.93-3.66-2.77-3.66-5.53c0-0.33,0.02-0.68,0.07-1.03
			c0.13-1.4,0.32-2.93,0.57-4.59c0.51-3.13,0.83-6.38,0.97-9.75c0.02-0.4,0.03-0.8,0.03-1.2c0-2.91-0.5-5.58-1.5-8.02l-0.8,0.07
			h-0.2c-0.53,0-1.19-0.07-1.96-0.2c-0.78-0.13-1.61-0.43-2.51-0.88c-0.9-0.45-1.72-1.15-2.46-2.1c-0.74-0.94-1.3-2.2-1.68-3.78
			c-0.33-1.55-0.5-2.96-0.5-4.23c0-0.33,0.03-0.94,0.1-1.83c0.07-0.89,0.27-1.81,0.62-2.76c0.34-0.95,0.69-1.68,1.05-2.16
			L271.67,766.81z M288.65,780.89l0.33,1.7c0.2,1.15,0.42,2.57,0.65,4.24c0.23,1.68,0.39,3.37,0.48,5.08
			c0.02,0.44,0.03,0.88,0.03,1.3c0,1.15-0.09,2.18-0.27,3.06l1.13-0.73c0.73-0.49,1.55-1.15,2.45-1.98c0.9-0.83,1.65-1.79,2.25-2.88
			c0.47-0.84,0.7-1.72,0.7-2.63c0-0.27-0.02-0.53-0.07-0.8c-0.49-2.37-1.45-4.07-2.9-5.09c-1.22-0.87-2.54-1.3-3.96-1.3
			C289.21,780.85,288.94,780.86,288.65,780.89z"/>
		<path class="st2" d="M320.17,779.69l0.73-0.07c0.15-0.02,0.32-0.03,0.5-0.03c0.35,0,0.83,0.04,1.41,0.12
			c0.59,0.08,1.22,0.29,1.9,0.63c0.68,0.34,1.23,0.88,1.65,1.61c0.42,0.69,0.63,1.64,0.63,2.86v0.8c0,2.69,0.27,5.25,0.8,7.69
			c0.31,1.53,0.58,3.21,0.8,5.03c0.22,1.66,0.33,3.59,0.33,5.79v0.6c-0.07,3.04-0.81,5.26-2.23,6.66c-1.42,1.4-3.28,2.26-5.59,2.6
			c-1.42,0.2-2.93,0.3-4.53,0.3c-0.95,0-1.94-0.03-2.96-0.1c-1.91-0.2-3.15-1.31-3.73-3.33c-0.36-1.31-0.53-2.81-0.53-4.49
			c0-0.95,0.1-2.44,0.3-4.44c0.2-2.01,0.64-4.49,1.33-7.46c0.69-2.96,1.31-5.46,1.86-7.51c0.02-0.11,0.04-0.21,0.07-0.3
			c0.42-1.51,0.94-2.73,1.55-3.66c0.61-0.93,1.24-1.64,1.9-2.11c0.65-0.48,1.27-0.8,1.85-0.97c0.58-0.17,1.05-0.25,1.43-0.25
			L320.17,779.69z M321.4,761.68c0.18-0.02,0.37-0.03,0.57-0.03c0.67,0,1.47,0.14,2.41,0.43c0.94,0.29,1.87,0.93,2.8,1.91
			c0.92,0.99,1.6,2.42,2.05,4.31c0.11,0.51,0.17,1.02,0.17,1.53c0,1.33-0.44,2.69-1.31,4.08c-0.88,1.39-2.14,2.57-3.79,3.54
			c-1.65,0.98-3.27,1.5-4.84,1.56c-1.58,0-2.98-0.52-4.23-1.56c-1.24-1.04-2.11-2.41-2.6-4.09c-0.2-0.64-0.3-1.32-0.3-2.03
			c0-1.07,0.23-2.17,0.7-3.33c0.6-1.4,1.36-2.52,2.3-3.36c0.93-0.84,1.86-1.48,2.78-1.91c0.92-0.43,1.7-0.72,2.35-0.85L321.4,761.68
			z"/>
		<path class="st2" d="M336.45,814.64c-1.35-0.33-2.75-1.07-4.19-2.21c-1.44-1.14-2.55-2.85-3.33-5.11c-0.58-2-0.87-4.29-0.87-6.89
			c0-0.49,0.04-1.68,0.12-3.56c0.08-1.89,0.35-4.37,0.82-7.46c0.58-4.7,1.5-8.91,2.78-12.62c1.28-3.71,3.41-6.9,6.41-9.59
			c1.77-1.64,3.68-2.62,5.73-2.93c0.69-0.13,1.38-0.2,2.06-0.2c1.64,0,3.34,0.36,5.09,1.07c2.8,1.35,5.16,3.65,7.11,6.89
			c1.94,3.24,3.48,6.75,4.63,10.53c1.14,3.78,1.91,7.15,2.31,10.1c0.31,1.95,0.47,4.04,0.47,6.26c0,0.71-0.03,2.01-0.1,3.89
			c-0.07,1.89-0.71,4.04-1.93,6.46c-1.22,2.42-3.28,3.97-6.19,4.66c-0.75,0.13-1.48,0.2-2.16,0.2c-1.2,0-2.29-0.21-3.26-0.63
			c-1.31-0.69-2.26-1.79-2.86-3.3c-0.49-1.2-0.73-2.42-0.73-3.66c0-0.31,0.01-0.62,0.03-0.93c0.15-1.04,0.41-2.21,0.77-3.5
			c0.09-0.38,0.19-0.77,0.3-1.16c-0.93-0.24-1.85-0.37-2.76-0.37c-1.38,0-2.73,0.28-4.06,0.83c0.2,0.91,0.42,1.8,0.67,2.66
			c0.6,1.89,0.91,3.66,0.93,5.33v0.07c0,1.62-0.77,3.08-2.3,4.39c-0.64,0.53-1.41,0.89-2.3,1.07c-0.27,0.07-0.57,0.1-0.9,0.1
			C338.04,815.04,337.29,814.9,336.45,814.64z M350.29,793.93c0-1.64-0.23-3.32-0.7-5.03c-0.47-1.71-1.28-3.02-2.43-3.93
			c-0.69-0.49-1.41-0.73-2.16-0.73c-0.07,0-0.32,0.01-0.77,0.02c-0.44,0.01-0.92,0.33-1.43,0.95c-0.44,0.6-0.71,1.42-0.8,2.46
			c-0.07,0.69-0.1,1.44-0.1,2.26c0,0.42,0.01,0.85,0.03,1.3v1.23c0,0.73,0.01,1.5,0.03,2.3c1.26-0.4,2.68-0.69,4.26-0.87
			c0.73-0.09,1.42-0.13,2.06-0.13C349.03,793.77,349.69,793.82,350.29,793.93z"/>
		<path class="st2" d="M372.86,789.07c-0.87-0.35-1.79-0.89-2.76-1.61c-0.98-0.72-1.84-1.69-2.6-2.91c-1.26-2.37-1.9-4.91-1.9-7.62
			c0-0.4,0.01-0.81,0.03-1.23c0.33-2.88,1.31-5.3,2.93-7.26c1.6-2,3.36-3.62,5.29-4.86c1.82-1.2,3.69-2.01,5.63-2.43
			c1.22-0.27,2.44-0.4,3.66-0.4c0.8,0,1.6,0.06,2.4,0.17c2,0.33,3.91,0.99,5.73,1.96c1.86,0.93,3.43,2.12,4.69,3.56
			c1.13,1.49,1.89,3.1,2.26,4.83c0.47,1.62,0.7,3.26,0.7,4.93v0.23c0,1.84-0.41,3.49-1.23,4.96c-0.87,1.38-2.22,2.36-4.06,2.96
			c-2,0.58-3.86,0.87-5.59,0.87h-0.57c-1.2,0-2.05-0.19-2.56-0.57c-0.62-0.53-1.08-1.26-1.36-2.2c-0.16-0.44-0.3-0.89-0.43-1.33
			c-0.13-0.42-0.27-0.82-0.4-1.2c-0.24-0.75-0.57-1.28-0.97-1.56c-0.18-0.09-0.36-0.13-0.53-0.13c-0.29,0-0.61,0.12-0.97,0.37
			c-0.58,0.42-1.04,1.05-1.4,1.9c-0.2,0.6-0.3,1.2-0.3,1.8c0,0.24,0.01,0.49,0.03,0.73c0.13,0.89,0.4,1.64,0.8,2.26
			c0.18,0.29,0.43,0.54,0.77,0.77c0.33,0.22,0.82,0.4,1.46,0.53c0.69,0.16,1.48,0.28,2.38,0.38c0.9,0.1,1.7,0.18,2.41,0.25h0.1
			c0.64,0.04,1.19,0.09,1.63,0.13c0.44,0.04,0.9,0.1,1.36,0.17c1.07,0.09,2.16,0.31,3.3,0.67c1.09,0.38,1.99,0.95,2.7,1.73
			c0.67,0.73,1.2,1.76,1.6,3.1c0.31,0.82,0.47,1.8,0.47,2.93c0,0.75-0.07,1.58-0.2,2.46c-0.49,2.4-1.58,4.82-3.26,7.26
			c-1.69,2.31-3.57,4.06-5.66,5.26c-2,1.09-3.99,1.69-5.99,1.8c-0.62,0.04-1.22,0.07-1.8,0.07c-1.33,0-2.59-0.11-3.76-0.33
			c-0.75-0.13-1.49-0.34-2.2-0.63c-0.71-0.29-1.51-0.77-2.4-1.43c-0.93-0.73-1.92-1.61-2.96-2.63c-1.04-1.02-1.95-2.04-2.73-3.06
			c-1.4-1.97-2.1-3.62-2.1-4.93v-0.07c0-1.31,0.37-2.42,1.1-3.33c0.71-0.95,1.62-1.73,2.73-2.33c1.04-0.55,2.3-0.88,3.76-0.97
			c0.24-0.02,0.5-0.03,0.77-0.03c0.51,0,1.1,0.06,1.76,0.17c0.67,0.11,1.32,0.4,1.96,0.87c0.91,0.82,1.62,1.81,2.13,2.96
			c0.18,0.31,0.33,0.6,0.47,0.87c0.64,1.11,1.32,1.69,2.03,1.73c0.11,0.02,0.21,0.03,0.3,0.03c0.69,0,1.34-0.32,1.96-0.97
			c0.69-0.82,1.05-1.81,1.1-2.96c-0.04-1.09-0.41-2.05-1.1-2.9c-0.64-0.84-1.52-1.5-2.63-1.96c-1.2-0.42-2.47-0.69-3.83-0.8
			c-0.09-0.02-0.18-0.03-0.27-0.03C375.65,790,374.35,789.67,372.86,789.07z"/>
	</g>
	<g>
		<path class="st3" d="M266.26,800.58c0.67,0.12,1.16,0.38,1.48,0.8c0.32,0.42,0.51,0.95,0.57,1.59c0.06,1.07,0.08,2.13,0.07,3.17
			c-0.02,1.04-0.09,2.09-0.24,3.13c-0.03,0.26-0.1,0.52-0.22,0.78c-0.12,0.26-0.23,0.51-0.35,0.74c-0.03,0.09-0.13,0.19-0.3,0.3
			c-0.32,0.12-0.63,0.24-0.93,0.37s-0.62,0.22-0.93,0.28c-0.61,0.06-1.22,0.06-1.85,0c-0.62-0.06-1.25-0.16-1.89-0.3
			c-0.17-0.46-0.29-0.92-0.35-1.37c-0.06-0.45-0.09-0.92-0.09-1.41c-0.58-0.06-1.15-0.08-1.7-0.07c-0.55,0.01-1.12,0.14-1.7,0.37
			c-0.06,0.2-0.12,0.41-0.2,0.61c-0.07,0.2-0.11,0.42-0.11,0.65c-0.03,0.52-0.04,1.04-0.04,1.54c0,0.51,0,1.02,0,1.54
			c0.12,0.03,0.29,0.04,0.52,0.04h2.87c0.67,0.03,1.19,0.21,1.57,0.54c0.38,0.33,0.59,0.82,0.65,1.46c0.06,0.52,0.09,1.04,0.11,1.56
			c0.01,0.52,0.04,1.06,0.07,1.61c0,0.23-0.02,0.46-0.07,0.7c-0.04,0.23-0.09,0.46-0.15,0.7c-0.09,0.61-0.43,1-1.04,1.17
			c-0.2,0.06-0.41,0.09-0.61,0.11c-0.2,0.01-0.42,0.04-0.65,0.07c-0.43,0.03-0.87,0.04-1.3,0.04c-0.43,0-0.87,0.02-1.3,0.04
			c-0.12,0-0.22,0.01-0.33,0.02c-0.1,0.02-0.22,0.04-0.37,0.07c-0.06,0.84-0.1,1.62-0.13,2.35c-0.09,1.22-0.13,2.41-0.13,3.56
			c-0.03,0.55-0.02,1.09,0.02,1.63c0.04,0.54,0.05,1.08,0.02,1.63c-0.03,0.49-0.06,0.99-0.09,1.5c-0.03,0.51-0.07,1.02-0.13,1.54
			c-0.06,0.52-0.22,0.91-0.48,1.17c-0.26,0.26-0.67,0.45-1.22,0.57c-0.67,0.14-1.33,0.22-1.98,0.22c-0.65,0-1.3-0.13-1.93-0.39
			c-0.64-0.2-1.04-0.62-1.22-1.26c-0.17-0.64-0.26-1.29-0.26-1.96c-0.03-0.64-0.07-1.27-0.11-1.91c-0.04-0.64-0.07-1.28-0.07-1.91
			c0-1.16,0-2.3,0-3.43s0.01-2.27,0.04-3.43h-0.04c-0.23-0.03-0.46-0.05-0.67-0.07c-0.22-0.01-0.43-0.09-0.63-0.24
			c-0.32-0.17-0.54-0.43-0.65-0.76c-0.12-0.33-0.2-0.66-0.26-0.98c-0.12-0.67-0.16-1.35-0.13-2.04c0.03-0.7,0.07-1.38,0.13-2.04
			c0.03-0.35,0.12-0.62,0.28-0.8c0.16-0.19,0.35-0.32,0.57-0.39c0.22-0.07,0.46-0.12,0.74-0.13c0.28-0.01,0.56-0.02,0.85-0.02
			c0.09-1.62,0.18-3.23,0.28-4.83c0.1-1.59,0.21-3.2,0.33-4.83c0.03-0.32,0.06-0.64,0.09-0.98c0.03-0.33,0.12-0.66,0.26-0.98
			c0.23-0.49,0.58-0.88,1.04-1.17c0.46-0.29,0.94-0.49,1.43-0.61c0.84-0.2,1.72-0.28,2.65-0.22c0.93,0.06,1.81,0.09,2.65,0.09
			c0.93-0.03,1.83-0.04,2.72-0.02c0.88,0.02,1.79,0.02,2.72,0.02c0.35,0,0.7,0.03,1.07,0.09
			C265.56,800.46,265.92,800.52,266.26,800.58z"/>
		<path class="st3" d="M283.22,831.4c0.03,0.29,0.04,0.59,0.04,0.89c0,0.3-0.07,0.59-0.22,0.85c-0.15,0.35-0.39,0.61-0.74,0.78
			c-0.35,0.17-0.71,0.32-1.09,0.43c-0.93,0.23-1.86,0.32-2.78,0.26c-0.43,0-0.8-0.07-1.09-0.22c-0.41-0.2-0.72-0.49-0.96-0.87
			c-0.26-0.43-0.41-0.88-0.46-1.33c-0.04-0.45-0.07-0.92-0.07-1.41c0-0.2-0.03-0.4-0.09-0.59c-0.06-0.19-0.17-0.34-0.35-0.46
			c-0.12-0.06-0.24-0.09-0.37-0.11c-0.13-0.01-0.27-0.02-0.41-0.02h-2.09c-0.12,0-0.23,0-0.35,0c-0.12,0-0.23,0.03-0.35,0.09
			c-0.2,0.12-0.35,0.28-0.43,0.48c-0.09,0.2-0.16,0.42-0.22,0.65c-0.09,0.29-0.18,0.6-0.28,0.93c-0.1,0.33-0.23,0.66-0.39,0.98
			c-0.16,0.32-0.35,0.61-0.57,0.87c-0.22,0.26-0.47,0.45-0.76,0.57c-0.23,0.12-0.48,0.19-0.74,0.22c-0.26,0.03-0.51,0.04-0.74,0.04
			c-0.35,0-0.69,0-1.02,0c-0.33,0-0.67-0.03-1.02-0.09c-0.23-0.03-0.46-0.07-0.67-0.11c-0.22-0.04-0.41-0.14-0.59-0.28
			c-0.23-0.17-0.39-0.4-0.48-0.67c-0.09-0.28-0.13-0.54-0.13-0.8c0.03-0.78,0.14-1.56,0.35-2.33c0.2-0.77,0.41-1.53,0.61-2.28
			c0.32-1.1,0.64-2.2,0.96-3.3c0.32-1.1,0.62-2.22,0.91-3.35c0.26-0.93,0.47-1.87,0.63-2.83c0.16-0.96,0.34-1.9,0.54-2.83
			c0.35-1.65,0.72-3.29,1.11-4.91c0.39-1.62,0.85-3.23,1.37-4.83c0.06-0.17,0.12-0.35,0.2-0.54c0.07-0.19,0.17-0.35,0.28-0.5
			c0.23-0.29,0.53-0.49,0.89-0.61c0.36-0.12,0.73-0.2,1.11-0.26c0.41-0.06,0.83-0.1,1.26-0.13c0.43-0.03,0.85-0.04,1.26-0.04
			c0.49,0,0.98,0.05,1.46,0.15c0.48,0.1,0.89,0.31,1.24,0.63c0.38,0.35,0.63,0.78,0.76,1.3s0.22,1.03,0.28,1.52
			c0.09,0.58,0.19,1.13,0.3,1.65c0.12,0.52,0.22,1.06,0.3,1.61c0.09,0.64,0.16,1.27,0.22,1.89c0.06,0.62,0.17,1.24,0.35,1.85
			c0.14,0.41,0.25,0.82,0.33,1.24c0.07,0.42,0.15,0.83,0.24,1.24c0.06,0.35,0.13,0.7,0.22,1.04c0.09,0.35,0.17,0.7,0.26,1.04
			c0.23,0.93,0.38,1.87,0.46,2.83c0.07,0.96,0.21,1.91,0.41,2.87c0.23,1.1,0.43,2.22,0.61,3.35
			C282.91,829.1,283.07,830.24,283.22,831.4z M274.74,824.27c0.2-0.09,0.28-0.26,0.22-0.52c-0.03-0.58-0.07-1.16-0.13-1.74
			c-0.06-0.58-0.13-1.16-0.22-1.74c-0.06-0.41-0.14-0.81-0.24-1.22c-0.1-0.41-0.2-0.81-0.28-1.22H274c-0.06,0-0.13,0.13-0.22,0.39
			c-0.09,0.26-0.17,0.55-0.26,0.87c-0.09,0.32-0.17,0.62-0.24,0.89c-0.07,0.28-0.12,0.44-0.15,0.5c-0.17,0.52-0.33,1.04-0.48,1.56
			c-0.15,0.52-0.23,1.06-0.26,1.61c-0.06,0.2-0.03,0.36,0.09,0.48c0.09,0.09,0.26,0.13,0.52,0.13c0.23,0,0.48,0.01,0.74,0.02
			c0.26,0.01,0.51,0.02,0.74,0.02C274.6,824.32,274.68,824.3,274.74,824.27z"/>
		<path class="st3" d="M292.78,811.06c-0.5-0.03-0.98-0.03-1.45,0c-0.47,0.03-0.93,0.16-1.37,0.39c-0.2,0.38-0.3,0.78-0.3,1.22
			c0.03,0.75,0.05,1.51,0.07,2.28c0.01,0.77,0.05,1.53,0.11,2.28c0.03,0.52,0.08,1.04,0.15,1.56c0.07,0.52,0.12,1.04,0.15,1.57
			c0.06,0.7,0.08,1.4,0.07,2.11c-0.02,0.71-0.01,1.41,0.02,2.11c0,0.32,0,0.62,0,0.89c0,0.28,0.01,0.57,0.04,0.89
			c0.09,0.78,0.54,1.2,1.37,1.26h1.5c0.24-0.2,0.35-0.49,0.35-0.87v-2.26c-0.06-0.52,0.13-0.88,0.57-1.09
			c1.01-0.55,2.03-0.72,3.04-0.52c1.22,0.23,1.94,0.97,2.17,2.22c0.17,0.9,0.23,1.86,0.17,2.87c-0.03,0.38-0.04,0.75-0.02,1.13
			c0.01,0.38,0.02,0.75,0.02,1.13c0.03,0.41,0.04,0.79,0.02,1.15c-0.02,0.36-0.12,0.73-0.33,1.11c-0.32,0.58-0.77,1-1.35,1.26
			c-0.64,0.29-1.3,0.49-2,0.59c-0.7,0.1-1.39,0.17-2.09,0.2c-0.7,0.03-1.4,0.02-2.11-0.02c-0.71-0.04-1.4-0.07-2.07-0.07
			c-0.38,0-0.75-0.01-1.13-0.02c-0.38-0.02-0.74-0.08-1.09-0.2c-0.67-0.23-1.25-0.6-1.74-1.11c-0.49-0.51-0.88-1.08-1.17-1.72
			c-0.29-0.61-0.49-1.25-0.61-1.93c-0.12-0.68-0.2-1.37-0.26-2.06c-0.23-1.88-0.38-3.75-0.43-5.61c-0.06-1.85-0.06-3.72,0-5.61
			c0.09-1.91,0.22-3.83,0.39-5.74c0.09-0.78,0.14-1.6,0.17-2.46c0.03-0.85,0.17-1.64,0.43-2.37c0.17-0.43,0.45-0.75,0.83-0.96
			c0.55-0.29,1.12-0.49,1.72-0.61c0.59-0.12,1.21-0.18,1.85-0.2c0.64-0.01,1.27,0,1.89,0.04c0.62,0.04,1.24,0.07,1.85,0.07
			c0.67,0.03,1.33,0.07,2,0.13c0.67,0.06,1.32,0.2,1.96,0.43c0.87,0.35,1.5,0.83,1.89,1.46c0.39,0.62,0.64,1.31,0.76,2.06
			c0.12,0.75,0.15,1.54,0.11,2.37c-0.04,0.83-0.07,1.62-0.07,2.37c0.03,1.07-0.42,1.86-1.35,2.35c-0.41,0.23-0.83,0.41-1.26,0.54
			c-0.43,0.13-0.88,0.21-1.35,0.24c-0.61,0-1.17-0.22-1.7-0.65c-0.24-0.2-0.38-0.43-0.42-0.7c-0.04-0.26-0.04-0.54,0.02-0.83
			c0.09-0.43,0.12-0.88,0.09-1.33C292.88,811.98,292.83,811.52,292.78,811.06z"/>
		<path class="st3" d="M304.91,810.97c-0.49,0.03-0.97,0.04-1.43,0.04c-0.46,0-0.91,0.02-1.35,0.04c-0.67,0-1.12-0.1-1.35-0.3
			c-0.23-0.2-0.36-0.64-0.39-1.3c-0.03-0.52-0.04-1.04-0.04-1.54c0-0.51,0-1.01,0-1.5c0-0.14,0-0.28,0-0.39
			c0-0.12,0.03-0.25,0.09-0.39c0.03-0.09,0.07-0.19,0.11-0.3c0.04-0.12,0.11-0.2,0.2-0.26c0.2-0.17,0.41-0.33,0.61-0.48
			c0.2-0.14,0.46-0.23,0.78-0.26c0.58-0.06,1.14-0.12,1.7-0.2c0.55-0.07,1.12-0.14,1.7-0.2c0.35-0.06,0.7-0.09,1.04-0.11
			c0.35-0.01,0.7-0.04,1.04-0.07h0.91c1.16,0,2.32-0.01,3.48-0.02c1.16-0.01,2.33-0.02,3.52-0.02c1.1,0.03,2.2,0.07,3.3,0.13
			c1.1,0.06,2.2,0.1,3.3,0.13c0.2,0,0.4,0.01,0.59,0.02c0.19,0.02,0.35,0.08,0.5,0.2c0.29,0.17,0.47,0.43,0.54,0.78
			c0.07,0.35,0.11,0.68,0.11,1c0.03,0.84-0.02,1.67-0.13,2.48c-0.03,0.35-0.09,0.7-0.2,1.04c-0.1,0.35-0.31,0.61-0.63,0.78
			c-0.23,0.15-0.47,0.22-0.72,0.24c-0.25,0.02-0.49,0.02-0.72,0.02c-0.15,0-0.48-0.01-1-0.02c-0.52-0.01-1.14-0.03-1.85-0.04
			c-0.71-0.01-1.46-0.03-2.26-0.04c-0.8-0.01-1.53-0.02-2.2-0.02c-0.67,0-1.22,0.02-1.65,0.04c-0.43,0.03-0.65,0.06-0.65,0.09v0.65
			c-0.03,1.68-0.04,3.36-0.04,5.04c0,1.68-0.03,3.38-0.09,5.09c0,0.29-0.02,0.57-0.04,0.83c-0.03,0.26-0.07,0.54-0.13,0.83
			c0,0.17,0,0.34,0,0.5c0,0.16-0.02,0.33-0.04,0.5c-0.06,0.64-0.07,1.27-0.04,1.89c0.03,0.62-0.03,1.25-0.17,1.89
			c-0.06,0.35-0.08,0.7-0.07,1.04c0.01,0.35,0.01,0.71-0.02,1.09v2c0,0.78-0.33,1.42-1,1.91c-0.12,0.12-0.23,0.19-0.35,0.22
			c-1.45,0.55-2.83,0.51-4.13-0.13c-0.9-0.43-1.36-1.16-1.39-2.17c-0.12-2-0.17-3.98-0.17-5.93s0.03-3.92,0.09-5.89
			c0.03-0.87,0.08-1.73,0.15-2.59c0.07-0.85,0.15-1.7,0.24-2.54c0.03-0.49,0.07-0.98,0.11-1.46c0.04-0.48,0.09-0.96,0.15-1.46
			V810.97z M327.3,829.84c-0.06,0.23-0.12,0.42-0.17,0.57c-0.17,0.61-0.43,1.19-0.78,1.74c-0.35,0.55-0.8,0.99-1.35,1.3
			c-0.49,0.32-1.04,0.55-1.65,0.7c-0.61,0.15-1.23,0.25-1.87,0.3c-0.64,0.06-1.28,0.07-1.91,0.02c-0.64-0.04-1.23-0.11-1.78-0.2
			c-0.58-0.09-1.15-0.25-1.7-0.5c-0.55-0.25-1.03-0.6-1.43-1.06c-0.58-0.67-0.93-1.43-1.07-2.3c-0.13-0.87-0.22-1.74-0.28-2.61
			c-0.06-0.9-0.11-1.78-0.15-2.65c-0.04-0.87-0.05-1.74-0.02-2.61c0-0.72,0.01-1.44,0.02-2.15c0.01-0.71,0.04-1.43,0.07-2.15
			c0-0.49-0.04-1.05-0.11-1.67c-0.07-0.62,0.01-1.18,0.24-1.67c0.29-0.67,0.59-1.26,0.91-1.78c0.29-0.46,0.67-0.77,1.13-0.93
			c0.46-0.16,0.96-0.25,1.48-0.28c0.93-0.06,1.87-0.08,2.83-0.07c0.96,0.01,1.9,0.09,2.83,0.24c0.38,0.06,0.75,0.09,1.13,0.11
			c0.38,0.02,0.75,0.05,1.13,0.11c1.33,0.12,2.17,0.8,2.52,2.04c0.23,0.81,0.42,1.61,0.57,2.39c0.14,0.78,0.17,1.59,0.09,2.43
			c-0.03,0.15-0.04,0.29-0.04,0.43c0,0.15,0,0.29,0,0.43c0,1.1-0.04,2.2-0.11,3.3c-0.07,1.1-0.14,2.2-0.2,3.3
			c-0.03,0.55-0.06,1.09-0.09,1.63C327.49,828.79,327.41,829.32,327.3,829.84z M318.65,825.45c0,0.32,0.01,0.63,0.02,0.93
			c0.01,0.3,0.02,0.62,0.02,0.93c0,0.2,0.01,0.35,0.04,0.43c0.06,0.15,0.17,0.26,0.33,0.35c0.16,0.09,0.33,0.16,0.5,0.22
			c0.32,0.06,0.63,0.08,0.93,0.07c0.3-0.01,0.57-0.12,0.8-0.33c0.26-0.23,0.42-0.51,0.48-0.85c0.06-0.33,0.09-0.67,0.09-1.02
			c0.03-0.43,0.04-0.86,0.02-1.28c-0.02-0.42-0.02-0.86-0.02-1.33c0-0.35-0.01-0.61-0.02-0.78c-0.02-0.17-0.03-0.33-0.04-0.48
			c-0.02-0.14-0.03-0.31-0.04-0.5c-0.02-0.19-0.04-0.46-0.07-0.8c-0.03-0.32-0.07-0.62-0.13-0.89c-0.06-0.28-0.12-0.53-0.17-0.76
			c-0.2-0.23-0.4-0.37-0.59-0.41c-0.19-0.04-0.4-0.07-0.63-0.07c-0.35,0.06-0.66,0.19-0.93,0.39c-0.28,0.2-0.41,0.45-0.41,0.74
			c-0.03,0.41-0.07,0.8-0.11,1.17c-0.04,0.38-0.07,0.75-0.07,1.13V825.45z"/>
		<path class="st3" d="M340.21,821.97c0.55,1.65,1.12,3.29,1.72,4.91c0.59,1.62,1.27,3.23,2.02,4.83c0.17,0.38,0.33,0.78,0.46,1.22
			c0.13,0.43,0.08,0.83-0.15,1.17c-0.15,0.26-0.36,0.45-0.65,0.57c-0.29,0.12-0.59,0.2-0.91,0.24c-0.32,0.04-0.65,0.06-0.98,0.04
			c-0.33-0.02-0.63-0.02-0.89-0.02s-0.53-0.02-0.8-0.07c-0.28-0.04-0.53-0.15-0.76-0.33c-0.17-0.14-0.31-0.3-0.41-0.48
			c-0.1-0.17-0.2-0.36-0.28-0.57c-0.32-0.67-0.62-1.34-0.91-2.02c-0.29-0.68-0.58-1.37-0.87-2.07c-0.29-0.61-0.55-1.24-0.78-1.89
			c-0.23-0.65-0.51-1.27-0.83-1.85c-0.03,0.41-0.07,0.8-0.11,1.17c-0.04,0.38-0.07,0.77-0.07,1.17c0.06,0.87,0.08,1.75,0.07,2.63
			c-0.02,0.88-0.09,1.76-0.24,2.63c-0.15,0.7-0.52,1.13-1.13,1.3c-0.61,0.14-1.22,0.23-1.83,0.26c-0.61,0.03-1.22-0.07-1.83-0.3
			c-0.35-0.14-0.58-0.3-0.7-0.46c-0.12-0.16-0.17-0.44-0.17-0.85c0.03-0.78,0.06-1.56,0.09-2.35c0.03-0.78,0.04-1.58,0.04-2.39
			c0-0.67-0.02-1.32-0.04-1.96c-0.03-0.64-0.04-1.29-0.04-1.96c-0.03-0.35-0.05-0.7-0.07-1.04c-0.02-0.35-0.01-0.7,0.02-1.04
			l0.26-2.87c0.03-0.17,0.04-0.35,0.04-0.54c0-0.19,0-0.38,0-0.59c-0.09-0.93-0.12-1.85-0.11-2.78c0.01-0.93,0.05-1.85,0.11-2.78
			v-0.43c0.06-0.84,0.09-1.69,0.11-2.54c0.01-0.85,0.04-1.7,0.07-2.54c0.03-0.41,0.07-0.8,0.13-1.2c0.06-0.39,0.17-0.78,0.35-1.15
			c0.17-0.41,0.43-0.7,0.78-0.87c0.67-0.32,1.29-0.46,1.87-0.43c1.28,0,2.53-0.01,3.76-0.04c1.23-0.03,2.48-0.01,3.76,0.04
			c0.67,0.03,1.32,0.15,1.96,0.35c0.64,0.2,1.16,0.58,1.56,1.13c0.29,0.41,0.48,0.86,0.59,1.35c0.1,0.49,0.15,1,0.15,1.52
			s-0.03,1.04-0.09,1.56c-0.06,0.52-0.1,1.01-0.13,1.48c-0.06,0.75-0.09,1.49-0.09,2.2c0,0.71-0.03,1.44-0.09,2.2
			c-0.03,0.52-0.07,1.04-0.11,1.56c-0.04,0.52-0.15,1.03-0.33,1.52c-0.15,0.49-0.38,0.94-0.72,1.35c-0.33,0.41-0.75,0.71-1.24,0.91
			c-0.43,0.15-0.87,0.23-1.3,0.26c-0.06,0.03-0.11,0.04-0.15,0.04c-0.04,0-0.09,0.03-0.15,0.09c-0.06,0.06-0.08,0.13-0.07,0.22
			c0.01,0.09,0.04,0.17,0.07,0.26c0,0.06,0.01,0.09,0.02,0.11C340.2,821.88,340.21,821.91,340.21,821.97z M337.69,814.88
			c0.32-0.17,0.51-0.38,0.59-0.63c0.07-0.25,0.12-0.53,0.15-0.85c0-0.32,0.01-0.63,0.02-0.93c0.01-0.3,0.02-0.62,0.02-0.93
			c0-0.14,0-0.3,0-0.48c0-0.17-0.01-0.33-0.04-0.48c0-0.32-0.17-0.51-0.52-0.57c-0.23-0.06-0.46-0.11-0.67-0.15
			c-0.22-0.04-0.44-0.09-0.67-0.15c-0.23-0.03-0.45-0.06-0.65-0.09c-0.2-0.03-0.41,0.03-0.61,0.17c-0.12,0.32-0.2,0.74-0.26,1.26
			c-0.06,0.52-0.09,1.05-0.11,1.59c-0.02,0.54-0.01,1.05,0.02,1.54c0.03,0.49,0.09,0.86,0.17,1.09c0.43,0.06,0.86,0.02,1.28-0.11
			C336.83,815.03,337.25,814.94,337.69,814.88z"/>
		<path class="st3" d="M351.82,817.8c-1.01-1.83-2.01-3.64-2.98-5.43c-0.97-1.8-1.93-3.61-2.89-5.43c-0.15-0.32-0.28-0.66-0.41-1.02
			c-0.13-0.36-0.12-0.7,0.02-1.02c0.14-0.38,0.42-0.64,0.83-0.78c0.41-0.14,0.81-0.25,1.22-0.3c0.61-0.09,1.2-0.13,1.78-0.13
			c0.2,0,0.41,0.01,0.61,0.02c0.2,0.01,0.39,0.07,0.57,0.15c0.41,0.15,0.78,0.44,1.13,0.89c0.35,0.45,0.61,0.88,0.78,1.28
			c0.29,0.67,0.63,1.3,1.02,1.89c0.39,0.59,0.75,1.22,1.07,1.89c0.06,0.09,0.13,0.17,0.22,0.26c0.09,0.09,0.17,0.19,0.26,0.3
			c0.23-0.32,0.44-0.65,0.63-1c0.19-0.35,0.38-0.68,0.59-1l1.3-2.22c0.2-0.32,0.41-0.63,0.63-0.93c0.22-0.3,0.48-0.57,0.8-0.8
			c0.38-0.23,0.79-0.38,1.24-0.46c0.45-0.07,0.89-0.12,1.33-0.15c0.35,0,0.7,0.03,1.04,0.09c0.35,0.06,0.64,0.2,0.87,0.43
			c0.14,0.15,0.25,0.32,0.3,0.52c0.06,0.2,0.12,0.42,0.17,0.65c0.06,0.29,0.08,0.58,0.07,0.87c-0.02,0.29-0.05,0.59-0.11,0.91
			c-0.06,0.32-0.15,0.61-0.28,0.87c-0.13,0.26-0.25,0.54-0.37,0.83c-0.2,0.61-0.43,1.21-0.7,1.8c-0.26,0.59-0.55,1.18-0.87,1.76
			c-0.52,1.04-1.01,2.11-1.46,3.2c-0.45,1.09-0.86,2.2-1.24,3.33c-0.29,0.93-0.65,1.83-1.09,2.7c-0.43,0.87-0.83,1.77-1.17,2.7
			c-0.35,0.93-0.69,1.86-1.02,2.8c-0.33,0.94-0.7,1.88-1.11,2.8c-0.17,0.41-0.36,0.81-0.57,1.22c-0.2,0.41-0.46,0.78-0.78,1.13
			c-0.29,0.35-0.62,0.66-1,0.93c-0.38,0.28-0.78,0.46-1.22,0.54c-0.29,0.09-0.58,0.13-0.87,0.13c-0.29,0-0.59,0-0.91,0
			c-0.41,0-0.77-0.06-1.09-0.17c-0.46-0.26-0.77-0.68-0.91-1.26c-0.06-0.26-0.08-0.52-0.07-0.78c0.01-0.26,0.05-0.52,0.11-0.78
			c0.09-0.46,0.21-0.92,0.37-1.37c0.16-0.45,0.31-0.89,0.46-1.33c0.61-1.74,1.22-3.47,1.83-5.2c0.61-1.72,1.23-3.46,1.87-5.2V817.8z
			"/>
	</g>
</g>
</svg>
